<svg width="1543" height="331" viewBox="0 0 1543 331" fill="none" xmlns="http://www.w3.org/2000/svg">
<g clip-path="url(#clip0_202778_132)">
<path d="M1435.09 211.065L1534.88 245.001H1391.7L1373.35 242.998L1364.45 237.435L1394.82 211.065H1435.09Z" fill="#172B4D"/>
<path d="M1421.96 148.758V143.418C1421.96 143.418 1410.28 120.275 1408.61 120.052C1406.94 119.83 1271.22 63.3086 1271.22 63.3086L1322.95 164.001L1343.42 185.809L1421.96 148.758Z" fill="white" stroke="#36B37E" stroke-width="1.35786" stroke-miterlimit="10"/>
<mask id="mask0_202778_132" style="mask-type:alpha" maskUnits="userSpaceOnUse" x="1270" y="62" width="154" height="126">
<path d="M1422.38 149.363V144.022C1422.38 144.022 1410.7 120.879 1409.03 120.657C1407.36 120.434 1271.64 63.9131 1271.64 63.9131L1323.37 164.606L1343.84 186.413L1422.38 149.363Z" fill="white" stroke="#36B37E" stroke-width="1.35786" stroke-miterlimit="10"/>
</mask>
<g mask="url(#mask0_202778_132)">
<path d="M1365.34 122.611L1348.32 123.168L1340.53 109.371L1324.18 110.15L1331.85 123.613L1315.61 124.169L1323.18 137.854L1339.53 137.52L1356.44 137.075L1364.67 151.317L1382.14 151.206L1390.81 165.892H1409.17L1400.16 150.983L1391.37 136.297L1373.68 136.742L1365.34 122.611Z" fill="#C5E9DA"/>
<path d="M1357.22 108.703L1349.21 95.1289L1332.74 96.019L1340.53 109.371L1357.22 108.703Z" fill="#36B37E"/>
<path d="M1382.8 121.944L1374.35 107.925L1357.22 108.704L1365.34 122.611L1382.8 121.944Z" fill="#36B37E"/>
<path d="M1391.93 107.145L1383.36 93.2373L1366.12 94.1274L1374.35 107.924L1391.93 107.145Z" fill="#36B37E"/>
<path d="M1400.71 121.387L1382.8 121.943L1391.37 136.296L1409.61 135.962L1428.3 135.517L1419.07 120.83L1410.06 106.366L1391.93 107.145L1400.71 121.387Z" fill="#36B37E"/>
<path d="M1308.27 110.817L1324.18 110.15L1316.72 96.7984L1332.74 96.0195L1325.18 82.7793L1309.38 83.7807L1293.92 84.782L1301.04 97.6885L1285.69 98.4673L1270.78 99.2461L1277.56 112.153L1292.69 111.485L1299.81 124.725L1315.61 124.169L1308.27 110.817Z" fill="#172B4D"/>
<path d="M1284.46 125.17L1291.47 138.521L1307.16 138.187L1299.81 124.725L1284.46 125.17Z" fill="#36B37E"/>
<path d="M1272.11 73.2103L1278.79 85.7829L1293.92 84.7816L1286.91 72.0977L1272.11 73.2103Z" fill="#36B37E"/>
<path d="M1349.21 95.1292L1366.12 94.1278L1358 80.665L1350.1 67.4248L1333.74 68.6487L1317.72 69.8726L1325.18 82.779L1341.42 81.7777L1349.21 95.1292Z" fill="#36B37E"/>
<path d="M1392.48 78.4395L1375.02 79.5521L1383.36 93.2374L1401.16 92.3473L1392.48 78.4395Z" fill="#36B37E"/>
<path d="M1428.53 105.588L1419.4 91.3467L1401.16 92.348L1410.06 106.367L1428.53 105.588Z" fill="#36B37E"/>
<path d="M1307.16 138.187L1314.61 151.984L1330.85 151.761L1323.18 137.854L1307.16 138.187Z" fill="#36B37E"/>
</g>
<path d="M1391.7 145.197L1329.41 158.549L1327.85 162.665L1341.75 181.691L1391.7 145.197Z" fill="#172B4D"/>
<path d="M1427.3 149.426L1488.49 0.222656L1449.11 160.774L1444.88 162.221L1427.3 149.426Z" fill="white" stroke="#36B37E" stroke-width="1.35786" stroke-miterlimit="10"/>
<path d="M1449.44 159.328L1431.2 139.857L1427.3 149.426L1444.88 162.221L1449.11 160.775L1449.44 159.328Z" fill="#36B37E"/>
<path d="M1444.88 162.221L1432.31 151.54L1412.84 136.742L1363.56 156.547L1361.33 168.452L1373.35 185.475L1444.88 162.221Z" fill="white" stroke="#36B37E" stroke-width="1.35786" stroke-miterlimit="10"/>
<path d="M1419.63 170.343L1456 158.549L1435.09 211.065L1405.05 212.956L1419.63 170.343Z" fill="white" stroke="#36B37E" stroke-width="1.35786" stroke-miterlimit="10"/>
<path d="M1380.58 182.915L1373.35 185.474L1370.01 232.984L1373.35 242.997L1405.05 212.956L1419.63 170.343L1380.58 182.915Z" fill="white" stroke="#36B37E" stroke-width="1.35786" stroke-miterlimit="10"/>
<path d="M1477.92 151.54L1540.77 185.475L1380.58 182.916L1477.92 151.54Z" fill="#C5E9DA" stroke="#36B37E" stroke-width="1.35786" stroke-miterlimit="10"/>
<path d="M1373.35 185.475V177.687L1322.95 108.37L1316.28 118.94L1364.45 237.435L1370.01 232.984L1373.35 185.475Z" fill="white" stroke="#36B37E" stroke-width="1.35786" stroke-miterlimit="10"/>
<path d="M1322.95 108.369L1316.28 118.939L1293.81 139.857L1311.61 103.919L1322.95 108.369Z" fill="white" stroke="#36B37E" stroke-width="1.35786" stroke-miterlimit="10"/>
<path d="M1443.1 190.816L1380.58 182.916L1445.88 184.029L1443.1 190.816Z" fill="#172B4D"/>
<path d="M1387.37 180.802L1365.56 162.666L1364.67 165.781L1373.35 177.686V185.475L1387.37 180.802Z" fill="#172B4D"/>
<path d="M1359.78 226.085L1354.66 232.427L1347.98 226.085L1313.16 121.944L1316.28 118.939L1359.78 226.085Z" fill="#C5E9DA" stroke="#36B37E" stroke-width="1.35786" stroke-miterlimit="10"/>
</g>
<path d="M50.4243 314.819L278.862 311.866L190.341 287.513L200.318 266.407L256.935 258.638L242.433 255.275L203.451 253.535L50.4243 314.819Z" fill="#172B4D"/>
<path d="M176.766 207.034L169.805 207.15L111.913 185.58L177.347 222.689L188.02 213.876L176.766 207.034Z" fill="#36B37E"/>
<path d="M176.767 207.033L289.42 186.392L233.151 241.011L176.767 207.033Z" fill="#172B4D"/>
<path d="M111.913 185.58L224.334 249.477L199.042 254.115L137.088 258.638L111.913 185.58Z" fill="white" stroke="#36B37E" stroke-width="1.43685" stroke-miterlimit="10" stroke-linejoin="round"/>
<path d="M224.334 249.477L289.42 186.392L242.432 255.275L224.334 249.477Z" fill="white" stroke="#36B37E" stroke-width="1.43685" stroke-miterlimit="10" stroke-linejoin="round"/>
<path d="M177.347 222.689L206.467 198.685L209.484 201.12L200.318 235.793L177.347 222.689Z" fill="white" stroke="#36B37E" stroke-width="1.43685" stroke-miterlimit="10" stroke-linejoin="round"/>
<path d="M209.484 201.119L235.82 238.46L224.334 249.477L200.318 235.793L209.484 201.119Z" fill="white" stroke="#36B37E" stroke-width="1.43685" stroke-miterlimit="10" stroke-linejoin="round"/>
<path d="M242.432 255.275L199.042 254.115L224.334 249.477L242.432 255.275Z" fill="white" stroke="#36B37E" stroke-width="1.43685" stroke-miterlimit="10" stroke-linejoin="round"/>
<path d="M92.5379 237.416L83.2565 239.039L1.58008 222.572L96.7146 258.058L109.128 244.026L92.5379 237.416Z" fill="white" stroke="#36B37E" stroke-width="1.43685" stroke-miterlimit="10" stroke-linejoin="round"/>
<path d="M92.5381 237.416L238.256 186.392L174.795 270.466L92.5381 237.416Z" fill="#C5E9DA" stroke="#36B37E" stroke-width="1.43685" stroke-miterlimit="10"/>
<path d="M1.58008 222.572L165.049 283.454L132.216 295.05L50.5395 313.953L1.58008 222.572Z" fill="white" stroke="#36B37E" stroke-width="1.43685" stroke-miterlimit="10" stroke-linejoin="round"/>
<path d="M165.049 283.454L238.256 186.392L190.341 287.513L165.049 283.454Z" fill="white" stroke="#36B37E" stroke-width="1.43685" stroke-miterlimit="10" stroke-linejoin="round"/>
<path d="M96.7144 258.058L130.476 220.138L135 222.573L130.127 270.467L96.7144 258.058Z" fill="#36B37E"/>
<path d="M135 222.572L177.811 266.523L165.049 283.454L130.127 270.466L135 222.572Z" fill="white" stroke="#36B37E" stroke-width="1.43685" stroke-miterlimit="10" stroke-linejoin="round"/>
<path d="M190.341 287.513L132.216 295.051L165.049 283.454L190.341 287.513Z" fill="white" stroke="#36B37E" stroke-width="1.43685" stroke-miterlimit="10" stroke-linejoin="round"/>
<mask id="mask1_202778_132" style="mask-type:alpha" maskUnits="userSpaceOnUse" x="0" y="222" width="166" height="92">
<path d="M1.37744 223.005L164.742 283.211L132.391 294.354L50.7142 313.256L1.37744 223.005Z" fill="white" stroke="#36B37E" stroke-width="1.43685" stroke-miterlimit="10" stroke-linejoin="round"/>
</mask>
<g mask="url(#mask1_202778_132)">
<path d="M99.731 285.889L81.9803 286.469L73.743 272.205L56.6884 272.901L64.6937 287.049L47.8711 287.512L55.6443 301.776L72.8149 301.428L90.3335 300.964L98.9189 315.924L117.25 315.692L126.299 330.999H145.326L136.044 315.46L126.879 300.269L108.316 300.617L99.731 285.889Z" fill="#C5E9DA"/>
<path d="M91.1459 271.394L82.7927 257.246L65.6221 258.174L73.7433 272.206L91.1459 271.394Z" fill="#C5E9DA"/>
<path d="M117.83 285.31L109.129 270.582L91.146 271.394L99.7313 285.889L117.83 285.31Z" fill="#36B37E"/>
<path d="M127.459 269.886L118.526 255.274L100.427 256.318L109.129 270.582L127.459 269.886Z" fill="#172B4D"/>
<path d="M136.509 284.614L117.83 285.309L126.879 300.269L145.79 299.805L165.281 299.341L155.652 284.034L146.254 269.074L127.46 269.886L136.509 284.614Z" fill="#36B37E"/>
<path d="M40.098 273.597L56.6885 272.901L48.9153 259.102L65.6218 258.174L57.7326 244.374L41.2581 245.418L25.1317 246.461L32.5568 259.913L16.6624 260.841L1 261.653L8.07708 274.989L23.9715 274.293L31.3966 288.093L47.8711 287.513L40.098 273.597Z" fill="#36B37E"/>
<path d="M15.27 288.673L22.6951 302.472L38.9376 302.125L31.3965 288.093L15.27 288.673Z" fill="#36B37E"/>
<path d="M2.39209 234.516L9.46917 247.504L25.1315 246.46L17.9385 233.356L2.39209 234.516Z" fill="#36B37E"/>
<path d="M82.7925 257.246L100.427 256.318L91.9579 242.286L83.7206 228.486L66.666 229.762L49.9595 230.922L57.7327 244.374L74.6712 243.33L82.7925 257.246Z" fill="#36B37E"/>
<path d="M128.039 239.967L109.825 241.126L118.526 255.274L137.089 254.346L128.039 239.967Z" fill="#36B37E"/>
<path d="M165.629 268.146L156 253.303L137.089 254.346L146.254 269.074L165.629 268.146Z" fill="#36B37E"/>
<path d="M38.938 302.124L46.7112 316.504L63.6498 316.272L55.6445 301.776L38.938 302.124Z" fill="#36B37E"/>
</g>
<defs>
<clipPath id="clip0_202778_132">
<rect width="273" height="245" fill="white" transform="matrix(-1 0 0 1 1543 0)"/>
</clipPath>
</defs>
</svg>
