<svg width="431" height="888" viewBox="0 0 431 888" fill="none" xmlns="http://www.w3.org/2000/svg">
<g clip-path="url(#clip0_197115_109)">
<path d="M395.382 744.629L411.251 754.184L367.158 878.671L347.437 885.746L338.626 875.728L336.181 867.645L365.12 796.589L372.146 790.077L369.312 783.335L382.332 750.092L395.382 744.629Z" fill="white"/>
<mask id="mask0_197115_109" style="mask-type:alpha" maskUnits="userSpaceOnUse" x="336" y="744" width="76" height="142">
<path d="M395.382 744.629L411.251 754.184L367.158 878.671L347.437 885.746L338.626 875.728L336.181 867.645L365.12 796.589L372.146 790.077L369.312 783.335L382.332 750.092L395.382 744.629Z" fill="white"/>
</mask>
<g mask="url(#mask0_197115_109)">
<path d="M362.843 809.198L365.041 802.79L371.217 801.864L373.316 795.673L367.206 796.589L369.326 790.53L363.205 791.38L360.965 797.526L358.679 803.814L352.241 804.782L349.791 811.298L343.111 812.44L340.506 819.251L347.306 818.022L353.986 816.88L356.35 810.243L362.843 809.198Z" fill="#C5E9DA"/>
<path d="M369.129 808.12L375.294 807.128L377.317 800.883L371.217 801.864L369.129 808.12Z" fill="#36B37E"/>
<path d="M360.523 815.695L366.94 814.595L369.129 808.121L362.843 809.2L360.523 815.695Z" fill="#36B37E"/>
<path d="M364.708 821.21L371.115 820.045L373.226 813.516L366.941 814.594L364.708 821.21Z" fill="#172B4D"/>
<path d="M358.181 822.463L360.523 815.695L353.986 816.881L351.512 823.67L349.004 830.667L355.783 829.307L362.442 828.034L364.708 821.211L358.181 822.463Z" fill="#172B4D"/>
<path d="M375.316 789.702L373.316 795.675L379.295 794.78L377.317 800.884L383.296 799.989L385.219 793.961L387.033 788.086L381.24 788.883L383.129 783.063L384.985 777.45L379.236 778.106L377.326 783.795L371.402 784.614L369.326 790.531L375.316 789.702Z" fill="#36B37E"/>
<path d="M373.357 778.781L367.422 779.534L365.336 785.386L371.402 784.612L373.357 778.781Z" fill="#172B4D"/>
<path d="M394.408 781.652L388.802 782.352L387.033 788.086L392.694 787.309L394.408 781.652Z" fill="#36B37E"/>
<path d="M375.294 807.128L373.226 813.516L379.381 812.458L385.394 811.356L387.286 805.132L389.133 799.049L383.296 799.988L381.394 806.147L375.294 807.128Z" fill="#36B37E"/>
<path d="M375.299 825.561L377.39 818.9L371.115 820.045L368.903 826.791L375.299 825.561Z" fill="#36B37E"/>
<path d="M360.065 835.01L366.647 833.681L368.903 826.793L362.442 828.034L360.065 835.01Z" fill="#36B37E"/>
<path d="M365.336 785.388L359.205 786.173L356.943 792.188L363.205 791.382L365.336 785.388Z" fill="#36B37E"/>
</g>
<path d="M395.382 744.629L347.437 885.746L367.158 878.671L411.251 754.184L395.382 744.629Z" fill="#C5E9DA"/>
<path d="M398.831 762.305L407.788 764.025L405.647 769.954L398.831 762.305Z" fill="#172B4D"/>
<path d="M395.382 744.629L411.251 754.184L367.158 878.671L347.437 885.746L338.626 875.728L336.181 867.645L365.12 796.589L372.146 790.077L369.312 783.335L382.332 750.092L395.382 744.629Z" stroke="#36B37E" stroke-width="1.57158" stroke-miterlimit="10" stroke-linejoin="round"/>
<path d="M378.291 794.807L384.434 799.537L376.236 800.856L378.291 794.807Z" fill="white"/>
<path d="M395.247 799.411L384.434 799.536L378.29 794.807L372.147 790.077" stroke="#36B37E" stroke-width="1.57158" stroke-miterlimit="10" stroke-linejoin="round"/>
<path d="M384.434 799.535L376.236 800.854L367.983 825.257" stroke="#36B37E" stroke-width="1.57158" stroke-miterlimit="10" stroke-linejoin="round"/>
<path d="M405.647 769.953L392.005 754.59L379.185 758.133" stroke="#36B37E" stroke-width="1.57158" stroke-miterlimit="10" stroke-linejoin="round"/>
<path d="M382.981 757.052L380.283 755.333" stroke="#36B37E" stroke-width="1.57158" stroke-miterlimit="10" stroke-linejoin="round"/>
<path d="M365.929 831.306L355.285 820.775L336.181 867.644L338.626 875.727L347.437 885.745L365.929 831.306Z" fill="white" stroke="#36B37E" stroke-width="1.57158" stroke-miterlimit="10" stroke-linejoin="round"/>
<path d="M382.092 837.251L364.696 834.937L363.3 828.77L366.568 830.263L382.092 837.251Z" fill="#172B4D"/>
<path d="M347.437 885.747L400.761 877.167L430.275 872.418L413.772 855.161L336.181 867.645L338.626 875.728L347.437 885.747Z" fill="#172B4D"/>
</g>
<defs>
<clipPath id="clip0_197115_109">
<rect width="92.8052" height="132.373" fill="white" transform="matrix(-0.987301 0.15886 0.15886 0.987301 409.627 742)"/>
</clipPath>
</defs>
</svg>
