<svg xmlns="http://www.w3.org/2000/svg" xmlns:xlink="http://www.w3.org/1999/xlink" width="500" zoomAndPan="magnify" viewBox="0 0 375 374.999991" height="500" preserveAspectRatio="xMidYMid meet" version="1.0"><defs><g/></defs><g fill="#000000" fill-opacity="1"><g transform="translate(135.458815, 237.959164)"><g><path d="M 18.421875 -12.9375 C 18.816406 -12.707031 18.847656 -12.15625 18.515625 -11.28125 C 18.023438 -10.632812 17.5 -10.03125 16.9375 -9.46875 C 16.375 -8.914062 15.765625 -8.414062 15.109375 -7.96875 C 15.054688 -7.96875 15.03125 -7.953125 15.03125 -7.921875 C 14.59375 -7.617188 14.128906 -7.359375 13.640625 -7.140625 C 9.585938 -5.679688 7.519531 -6.535156 7.4375 -9.703125 C 5.800781 -8.273438 4.703125 -7.398438 4.140625 -7.078125 C 2.804688 -6.285156 1.359375 -5.929688 -0.203125 -6.015625 C -1.359375 -6.085938 -2.140625 -6.441406 -2.546875 -7.078125 C -2.960938 -7.710938 -2.925781 -8.570312 -2.4375 -9.65625 C -1.695312 -11.363281 -0.640625 -12.882812 0.734375 -14.21875 C 2.347656 -15.707031 4.132812 -16.898438 6.09375 -17.796875 C 7.144531 -18.328125 8.242188 -18.53125 9.390625 -18.40625 C 10.546875 -18.34375 11.242188 -17.691406 11.484375 -16.453125 C 11.578125 -16.078125 11.484375 -15.75 11.203125 -15.46875 C 10.828125 -15.125 10.394531 -15.046875 9.90625 -15.234375 C 9.875 -15.234375 9.828125 -15.238281 9.765625 -15.25 C 9.703125 -15.269531 9.65625 -15.300781 9.625 -15.34375 C 9.132812 -16.019531 8.640625 -16.300781 8.140625 -16.1875 C 7.640625 -16.070312 7.109375 -15.847656 6.546875 -15.515625 C 3.941406 -13.992188 2.003906 -11.867188 0.734375 -9.140625 C 0.671875 -9.023438 0.628906 -8.894531 0.609375 -8.75 C 0.585938 -8.601562 0.628906 -8.488281 0.734375 -8.40625 C 1.035156 -8.300781 1.375 -8.320312 1.75 -8.46875 C 2.125 -8.613281 2.492188 -8.820312 2.859375 -9.09375 C 3.234375 -9.375 3.550781 -9.609375 3.8125 -9.796875 C 3.84375 -9.847656 3.859375 -9.875 3.859375 -9.875 C 5.097656 -10.90625 6.304688 -11.960938 7.484375 -13.046875 C 8.015625 -13.609375 8.671875 -13.921875 9.453125 -13.984375 C 10.566406 -13.984375 11.03125 -13.488281 10.84375 -12.5 C 10.738281 -12.125 10.628906 -11.75 10.515625 -11.375 C 10.078125 -9.769531 10.0625 -8.828125 10.46875 -8.546875 C 10.875 -8.265625 11.492188 -8.265625 12.328125 -8.546875 C 13.160156 -8.828125 13.992188 -9.359375 14.828125 -10.140625 C 15.671875 -10.929688 16.378906 -11.648438 16.953125 -12.296875 C 17.535156 -12.953125 18.023438 -13.164062 18.421875 -12.9375 Z M 18.421875 -12.9375 "/></g></g></g><g fill="#000000" fill-opacity="1"><g transform="translate(152.291539, 237.959164)"><g><path d="M 20.109375 -12.671875 C 20.378906 -12.328125 20.039062 -11.707031 19.09375 -10.8125 C 18.144531 -9.914062 17.132812 -9.160156 16.0625 -8.546875 C 15 -7.941406 13.765625 -7.335938 12.359375 -6.734375 C 11.429688 -6.328125 10.441406 -6.191406 9.390625 -6.328125 C 8.347656 -6.460938 7.828125 -7.09375 7.828125 -8.21875 C 7.828125 -9.351562 8.085938 -10.484375 8.609375 -11.609375 C 9.128906 -12.753906 9.238281 -13.34375 8.9375 -13.375 C 8.644531 -13.414062 8.035156 -13.140625 7.109375 -12.546875 C 4.691406 -10.953125 2.441406 -9.128906 0.359375 -7.078125 C -0.203125 -6.398438 -0.914062 -6.03125 -1.78125 -5.96875 C -2.21875 -5.96875 -2.554688 -6.109375 -2.796875 -6.390625 C -3.046875 -6.671875 -3.078125 -6.96875 -2.890625 -7.28125 C -1.398438 -10.039062 0.101562 -12.769531 1.625 -15.46875 C 1.96875 -16.019531 2.476562 -16.363281 3.15625 -16.5 C 3.4375 -16.550781 3.695312 -16.460938 3.9375 -16.234375 C 4.1875 -16.003906 4.3125 -15.75 4.3125 -15.46875 C 4.28125 -15.195312 4.171875 -14.875 3.984375 -14.5 C 3.898438 -14.28125 3.816406 -14.066406 3.734375 -13.859375 C 3.660156 -13.660156 3.632812 -13.492188 3.65625 -13.359375 C 3.6875 -13.222656 3.796875 -13.179688 3.984375 -13.234375 C 4.242188 -13.367188 4.5 -13.507812 4.75 -13.65625 C 5.394531 -14.03125 6.015625 -14.390625 6.609375 -14.734375 C 7.128906 -15.035156 7.675781 -15.300781 8.25 -15.53125 C 8.820312 -15.769531 9.425781 -15.929688 10.0625 -16.015625 C 11.070312 -16.085938 11.785156 -15.859375 12.203125 -15.328125 C 12.628906 -14.804688 12.679688 -14.082031 12.359375 -13.15625 C 12.023438 -12.3125 11.671875 -11.472656 11.296875 -10.640625 C 10.835938 -9.859375 10.757812 -9.265625 11.0625 -8.859375 C 11.375 -8.453125 12.789062 -8.921875 15.3125 -10.265625 L 17.21875 -11.375 C 19.007812 -12.53125 19.972656 -12.960938 20.109375 -12.671875 Z M 20.109375 -12.671875 "/></g></g></g><g fill="#000000" fill-opacity="1"><g transform="translate(170.901474, 237.959164)"><g><path d="M 10.09375 -10.703125 C 9.1875 -9.628906 8.113281 -8.644531 6.875 -7.75 C 5.644531 -6.851562 4.25 -6.242188 2.6875 -5.921875 C 1.132812 -5.609375 -0.0703125 -5.722656 -0.9375 -6.265625 C -1.800781 -6.804688 -1.972656 -8.007812 -1.453125 -9.875 C -0.773438 -11.800781 0.15625 -13.640625 1.34375 -15.390625 C 1.613281 -15.765625 2.003906 -16.023438 2.515625 -16.171875 C 2.890625 -16.253906 3.210938 -16.191406 3.484375 -15.984375 C 3.765625 -15.773438 3.875 -15.507812 3.8125 -15.1875 C 3.550781 -14.570312 3.269531 -13.957031 2.96875 -13.34375 C 2.664062 -12.738281 2.460938 -12.34375 2.359375 -12.15625 C 1.765625 -11.070312 1.351562 -9.941406 1.125 -8.765625 C 1.125 -8.085938 2.023438 -8.039062 3.828125 -8.625 C 5.640625 -9.21875 7.398438 -10.304688 9.109375 -11.890625 C 10.828125 -13.472656 11.644531 -13.9375 11.5625 -13.28125 C 11.488281 -12.632812 11 -11.773438 10.09375 -10.703125 Z M 5.65625 -19.203125 C 5.570312 -19.128906 5.398438 -19.046875 5.140625 -18.953125 C 4.878906 -18.859375 4.597656 -18.789062 4.296875 -18.75 C 4.003906 -18.707031 3.773438 -18.753906 3.609375 -18.890625 C 3.441406 -19.023438 3.429688 -19.296875 3.578125 -19.703125 C 3.847656 -20.410156 4.128906 -21.03125 4.421875 -21.5625 C 4.722656 -22.101562 5.113281 -22.691406 5.59375 -23.328125 C 5.894531 -23.617188 6.222656 -23.773438 6.578125 -23.796875 C 6.929688 -23.828125 7.226562 -23.734375 7.46875 -23.515625 C 7.707031 -23.304688 7.773438 -23.019531 7.671875 -22.65625 C 7.296875 -21.3125 6.625 -20.160156 5.65625 -19.203125 Z M 5.65625 -19.203125 "/></g></g></g><g fill="#000000" fill-opacity="1"><g transform="translate(180.803073, 237.959164)"><g><path d="M 26.53125 -12.71875 C 27.125 -13.09375 27.585938 -13.1875 27.921875 -13 C 28.265625 -12.8125 28.140625 -12.285156 27.546875 -11.421875 C 26.804688 -10.421875 25.472656 -9.351562 23.546875 -8.21875 C 21.628906 -7.09375 19.929688 -6.597656 18.453125 -6.734375 C 16.984375 -6.878906 16.554688 -7.96875 17.171875 -10 C 17.796875 -12.03125 18.128906 -13.164062 18.171875 -13.40625 C 18.222656 -13.65625 18.175781 -13.796875 18.03125 -13.828125 C 17.894531 -13.867188 17.5625 -13.703125 17.03125 -13.328125 C 15.507812 -12.273438 14.019531 -11.175781 12.5625 -10.03125 C 11.9375 -9.550781 11.320312 -9.050781 10.71875 -8.53125 C 10.34375 -8.195312 9.953125 -7.859375 9.546875 -7.515625 C 9.546875 -7.515625 9.53125 -7.5 9.5 -7.46875 C 9.0625 -7.03125 8.519531 -6.734375 7.875 -6.578125 C 7.582031 -6.492188 7.273438 -6.460938 6.953125 -6.484375 C 6.628906 -6.515625 6.359375 -6.640625 6.140625 -6.859375 C 5.890625 -7.109375 5.796875 -7.375 5.859375 -7.65625 C 5.929688 -7.9375 6.144531 -8.351562 6.5 -8.90625 C 6.851562 -9.46875 7.242188 -10.082031 7.671875 -10.75 C 8.109375 -11.414062 8.351562 -11.828125 8.40625 -11.984375 C 8.457031 -12.140625 8.429688 -12.289062 8.328125 -12.4375 C 8.210938 -12.59375 8.082031 -12.640625 7.9375 -12.578125 C 7.789062 -12.523438 7.25 -12.160156 6.3125 -11.484375 C 5.382812 -10.816406 4.117188 -9.882812 2.515625 -8.6875 C 1.765625 -8.125 1.035156 -7.546875 0.328125 -6.953125 C 0.140625 -6.765625 -0.0625 -6.597656 -0.28125 -6.453125 C -0.800781 -6.015625 -1.375 -5.773438 -2 -5.734375 C -2.457031 -5.703125 -2.796875 -5.804688 -3.015625 -6.046875 C -3.242188 -6.285156 -3.28125 -6.609375 -3.125 -7.015625 C -3.019531 -7.316406 -2.894531 -7.59375 -2.75 -7.84375 C -2.65625 -7.96875 -2.59375 -8.085938 -2.5625 -8.203125 C -1.226562 -10.910156 0.0859375 -13.628906 1.390625 -16.359375 C 1.429688 -16.421875 1.46875 -16.507812 1.5 -16.625 C 1.65625 -16.914062 1.804688 -17.195312 1.953125 -17.46875 C 2.359375 -17.90625 2.84375 -18.050781 3.40625 -17.90625 C 4.050781 -17.71875 4.296875 -17.34375 4.140625 -16.78125 C 3.835938 -15.9375 3.539062 -15.097656 3.25 -14.265625 C 3.09375 -13.898438 2.941406 -13.53125 2.796875 -13.15625 C 2.535156 -12.488281 2.453125 -12.0625 2.546875 -11.875 C 2.640625 -11.695312 3.0625 -11.828125 3.8125 -12.265625 C 4.320312 -12.597656 4.820312 -12.9375 5.3125 -13.28125 C 5.90625 -13.6875 6.476562 -14.054688 7.03125 -14.390625 C 7.894531 -14.921875 8.773438 -15.375 9.671875 -15.75 C 10.109375 -15.925781 10.5625 -16.0625 11.03125 -16.15625 C 11.5 -16.25 11.9375 -16.144531 12.34375 -15.84375 C 12.644531 -15.59375 12.773438 -15.304688 12.734375 -14.984375 C 12.691406 -14.660156 12.601562 -14.351562 12.46875 -14.0625 C 12.226562 -13.507812 12.128906 -13.15625 12.171875 -13 C 12.210938 -12.84375 12.34375 -12.8125 12.5625 -12.90625 C 12.789062 -13 13.179688 -13.210938 13.734375 -13.546875 C 14.296875 -13.890625 14.898438 -14.265625 15.546875 -14.671875 C 16.359375 -15.203125 17.210938 -15.703125 18.109375 -16.171875 C 18.847656 -16.660156 19.640625 -16.957031 20.484375 -17.0625 C 21.660156 -17.144531 22.140625 -16.675781 21.921875 -15.65625 C 21.710938 -14.632812 21.300781 -13.414062 20.6875 -12 C 20.082031 -10.582031 20.019531 -9.710938 20.5 -9.390625 C 20.988281 -9.066406 22.0625 -9.503906 23.71875 -10.703125 C 25.375 -11.898438 26.3125 -12.570312 26.53125 -12.71875 Z M 26.53125 -12.71875 "/></g></g></g><g fill="#000000" fill-opacity="1"><g transform="translate(207.664335, 237.959164)"><g><path d="M 18.421875 -12.9375 C 18.816406 -12.707031 18.847656 -12.15625 18.515625 -11.28125 C 18.023438 -10.632812 17.5 -10.03125 16.9375 -9.46875 C 16.375 -8.914062 15.765625 -8.414062 15.109375 -7.96875 C 15.054688 -7.96875 15.03125 -7.953125 15.03125 -7.921875 C 14.59375 -7.617188 14.128906 -7.359375 13.640625 -7.140625 C 9.585938 -5.679688 7.519531 -6.535156 7.4375 -9.703125 C 5.800781 -8.273438 4.703125 -7.398438 4.140625 -7.078125 C 2.804688 -6.285156 1.359375 -5.929688 -0.203125 -6.015625 C -1.359375 -6.085938 -2.140625 -6.441406 -2.546875 -7.078125 C -2.960938 -7.710938 -2.925781 -8.570312 -2.4375 -9.65625 C -1.695312 -11.363281 -0.640625 -12.882812 0.734375 -14.21875 C 2.347656 -15.707031 4.132812 -16.898438 6.09375 -17.796875 C 7.144531 -18.328125 8.242188 -18.53125 9.390625 -18.40625 C 10.546875 -18.34375 11.242188 -17.691406 11.484375 -16.453125 C 11.578125 -16.078125 11.484375 -15.75 11.203125 -15.46875 C 10.828125 -15.125 10.394531 -15.046875 9.90625 -15.234375 C 9.875 -15.234375 9.828125 -15.238281 9.765625 -15.25 C 9.703125 -15.269531 9.65625 -15.300781 9.625 -15.34375 C 9.132812 -16.019531 8.640625 -16.300781 8.140625 -16.1875 C 7.640625 -16.070312 7.109375 -15.847656 6.546875 -15.515625 C 3.941406 -13.992188 2.003906 -11.867188 0.734375 -9.140625 C 0.671875 -9.023438 0.628906 -8.894531 0.609375 -8.75 C 0.585938 -8.601562 0.628906 -8.488281 0.734375 -8.40625 C 1.035156 -8.300781 1.375 -8.320312 1.75 -8.46875 C 2.125 -8.613281 2.492188 -8.820312 2.859375 -9.09375 C 3.234375 -9.375 3.550781 -9.609375 3.8125 -9.796875 C 3.84375 -9.847656 3.859375 -9.875 3.859375 -9.875 C 5.097656 -10.90625 6.304688 -11.960938 7.484375 -13.046875 C 8.015625 -13.609375 8.671875 -13.921875 9.453125 -13.984375 C 10.566406 -13.984375 11.03125 -13.488281 10.84375 -12.5 C 10.738281 -12.125 10.628906 -11.75 10.515625 -11.375 C 10.078125 -9.769531 10.0625 -8.828125 10.46875 -8.546875 C 10.875 -8.265625 11.492188 -8.265625 12.328125 -8.546875 C 13.160156 -8.828125 13.992188 -9.359375 14.828125 -10.140625 C 15.671875 -10.929688 16.378906 -11.648438 16.953125 -12.296875 C 17.535156 -12.953125 18.023438 -13.164062 18.421875 -12.9375 Z M 18.421875 -12.9375 "/></g></g></g><g fill="#000000" fill-opacity="1"><g transform="translate(224.497059, 237.959164)"><g><path d="M 12.296875 -12.875 C 9.617188 -11.875 7.6875 -11.0625 6.5 -10.4375 C 5.632812 -10.007812 5.140625 -9.65625 5.015625 -9.375 C 4.890625 -9.101562 4.988281 -8.59375 5.3125 -7.84375 C 5.3125 -7.8125 5.335938 -7.757812 5.390625 -7.6875 C 5.753906 -6.789062 5.972656 -5.863281 6.046875 -4.90625 C 6.160156 -2.957031 4.503906 -1.59375 1.078125 -0.8125 C -2.347656 -0.03125 -4.640625 -0.00390625 -5.796875 -0.734375 C -6.960938 -1.460938 -7.320312 -2.382812 -6.875 -3.5 C -6.425781 -4.625 -5.257812 -5.757812 -3.375 -6.90625 C -1.5 -8.0625 -0.242188 -8.890625 0.390625 -9.390625 C 1.023438 -9.898438 1.21875 -10.46875 0.96875 -11.09375 C 0.882812 -11.3125 0.789062 -11.53125 0.6875 -11.75 C 0.46875 -12.28125 0.238281 -12.820312 0 -13.375 C -0.4375 -14.394531 -0.625 -15.394531 -0.5625 -16.375 C -0.507812 -17.351562 -0.148438 -18.175781 0.515625 -18.84375 C 1.191406 -19.519531 2.226562 -19.882812 3.625 -19.9375 C 4.425781 -19.96875 5.140625 -19.859375 5.765625 -19.609375 C 6.390625 -19.367188 6.890625 -18.914062 7.265625 -18.25 C 7.566406 -17.800781 7.472656 -17.390625 6.984375 -17.015625 C 6.660156 -16.753906 6.3125 -16.71875 5.9375 -16.90625 C 5.707031 -17.007812 5.476562 -17.15625 5.25 -17.34375 C 5.25 -17.394531 5.25 -17.421875 5.25 -17.421875 C 5.15625 -17.484375 5.066406 -17.550781 4.984375 -17.625 C 4.878906 -17.769531 4.765625 -17.890625 4.640625 -17.984375 C 4.203125 -18.296875 3.757812 -18.390625 3.3125 -18.265625 C 2.863281 -18.140625 2.53125 -17.796875 2.3125 -17.234375 C 2.15625 -16.796875 2.078125 -16.347656 2.078125 -15.890625 C 2.117188 -15.335938 2.25 -14.796875 2.46875 -14.265625 C 2.613281 -13.941406 2.75 -13.644531 2.875 -13.375 C 3.15625 -12.632812 3.390625 -12.125 3.578125 -11.84375 C 3.765625 -11.5625 3.988281 -11.441406 4.25 -11.484375 C 4.507812 -11.523438 6.910156 -12.382812 11.453125 -14.0625 C 12.429688 -14.382812 12.710938 -13.988281 12.296875 -12.875 Z M 1.296875 -3.171875 C 2.484375 -3.578125 2.984375 -4.375 2.796875 -5.5625 C 2.796875 -5.644531 2.78125 -5.738281 2.75 -5.84375 C 2.675781 -6.488281 2.535156 -6.984375 2.328125 -7.328125 C 2.128906 -7.671875 1.675781 -7.65625 0.96875 -7.28125 C -0.789062 -6.289062 -2.414062 -5.125 -3.90625 -3.78125 C -4.007812 -3.664062 -4.101562 -3.554688 -4.1875 -3.453125 C -4.1875 -3.453125 -4.203125 -3.425781 -4.234375 -3.375 C -4.335938 -3.238281 -4.351562 -3.085938 -4.28125 -2.921875 C -4.21875 -2.753906 -4.066406 -2.671875 -3.828125 -2.671875 C -2.085938 -2.398438 -0.378906 -2.566406 1.296875 -3.171875 Z M 1.296875 -3.171875 "/></g></g></g><g fill="#000000" fill-opacity="1"><g transform="translate(235.744266, 237.959164)"><g><path d="M 20.625 -11.828125 C 20.3125 -11.554688 19.988281 -11.3125 19.65625 -11.09375 C 18.570312 -10.414062 17.59375 -9.878906 16.71875 -9.484375 C 15.84375 -9.097656 14.816406 -8.703125 13.640625 -8.296875 C 11.878906 -7.773438 10.75 -7.894531 10.25 -8.65625 C 9.75 -9.414062 9.664062 -10.472656 10 -11.828125 C 10.476562 -13.765625 10.753906 -15.179688 10.828125 -16.078125 C 10.898438 -16.972656 10.601562 -17.28125 9.9375 -17 C 9.269531 -16.71875 8.054688 -15.789062 6.296875 -14.21875 C 3.835938 -12.101562 1.738281 -9.679688 0 -6.953125 C -0.21875 -6.585938 -0.488281 -6.285156 -0.8125 -6.046875 C -1.132812 -5.804688 -1.53125 -5.6875 -2 -5.6875 C -2.457031 -5.6875 -2.785156 -5.804688 -2.984375 -6.046875 C -3.191406 -6.285156 -3.203125 -6.609375 -3.015625 -7.015625 C -2.023438 -9.210938 -1.003906 -11.394531 0.046875 -13.5625 C 1.847656 -17.320312 3.617188 -21.0625 5.359375 -24.78125 C 6.660156 -27.570312 7.945312 -30.363281 9.21875 -33.15625 C 10 -34.800781 10.757812 -36.445312 11.5 -38.09375 C 11.570312 -38.226562 11.648438 -38.367188 11.734375 -38.515625 C 11.796875 -38.703125 11.875 -38.890625 11.96875 -39.078125 C 12.0625 -39.265625 12.171875 -39.46875 12.296875 -39.6875 C 12.390625 -39.875 12.578125 -40.023438 12.859375 -40.140625 C 13.140625 -40.265625 13.421875 -40.34375 13.703125 -40.375 C 13.984375 -40.40625 14.195312 -40.390625 14.34375 -40.328125 C 14.5625 -40.171875 14.679688 -40.003906 14.703125 -39.828125 C 14.734375 -39.660156 14.707031 -39.488281 14.625 -39.3125 C 14.59375 -39.269531 14.578125 -39.207031 14.578125 -39.125 C 14.234375 -38.125 13.878906 -37.160156 13.515625 -36.234375 C 11.359375 -31.054688 9.007812 -25.953125 6.46875 -20.921875 C 6.289062 -20.585938 6.070312 -20.179688 5.8125 -19.703125 C 5.4375 -19.023438 5.085938 -18.359375 4.765625 -17.703125 C 4.453125 -17.054688 4.347656 -16.625 4.453125 -16.40625 C 4.566406 -16.1875 5.070312 -16.351562 5.96875 -16.90625 C 6.238281 -17.09375 6.484375 -17.28125 6.703125 -17.46875 C 7.410156 -17.945312 8.113281 -18.394531 8.8125 -18.8125 C 9.414062 -19.21875 10.09375 -19.4375 10.84375 -19.46875 C 12.625 -19.59375 13.625 -18.789062 13.84375 -17.0625 C 13.925781 -16.363281 13.898438 -15.675781 13.765625 -15 C 13.628906 -14.320312 13.46875 -13.65625 13.28125 -13 C 13.25 -12.8125 13.210938 -12.625 13.171875 -12.4375 C 12.867188 -11.289062 12.953125 -10.628906 13.421875 -10.453125 C 13.890625 -10.285156 14.539062 -10.378906 15.375 -10.734375 C 16.207031 -11.097656 17.054688 -11.53125 17.921875 -12.03125 C 18.515625 -12.34375 19.035156 -12.609375 19.484375 -12.828125 C 19.929688 -13.046875 20.265625 -13.140625 20.484375 -13.109375 C 20.890625 -13.035156 21.078125 -12.867188 21.046875 -12.609375 C 21.015625 -12.347656 20.875 -12.085938 20.625 -11.828125 Z M 20.625 -11.828125 "/></g></g></g><g fill="#000000" fill-opacity="1"><g transform="translate(255.115862, 237.959164)"><g><path d="M 18.421875 -12.9375 C 18.816406 -12.707031 18.847656 -12.15625 18.515625 -11.28125 C 18.023438 -10.632812 17.5 -10.03125 16.9375 -9.46875 C 16.375 -8.914062 15.765625 -8.414062 15.109375 -7.96875 C 15.054688 -7.96875 15.03125 -7.953125 15.03125 -7.921875 C 14.59375 -7.617188 14.128906 -7.359375 13.640625 -7.140625 C 9.585938 -5.679688 7.519531 -6.535156 7.4375 -9.703125 C 5.800781 -8.273438 4.703125 -7.398438 4.140625 -7.078125 C 2.804688 -6.285156 1.359375 -5.929688 -0.203125 -6.015625 C -1.359375 -6.085938 -2.140625 -6.441406 -2.546875 -7.078125 C -2.960938 -7.710938 -2.925781 -8.570312 -2.4375 -9.65625 C -1.695312 -11.363281 -0.640625 -12.882812 0.734375 -14.21875 C 2.347656 -15.707031 4.132812 -16.898438 6.09375 -17.796875 C 7.144531 -18.328125 8.242188 -18.53125 9.390625 -18.40625 C 10.546875 -18.34375 11.242188 -17.691406 11.484375 -16.453125 C 11.578125 -16.078125 11.484375 -15.75 11.203125 -15.46875 C 10.828125 -15.125 10.394531 -15.046875 9.90625 -15.234375 C 9.875 -15.234375 9.828125 -15.238281 9.765625 -15.25 C 9.703125 -15.269531 9.65625 -15.300781 9.625 -15.34375 C 9.132812 -16.019531 8.640625 -16.300781 8.140625 -16.1875 C 7.640625 -16.070312 7.109375 -15.847656 6.546875 -15.515625 C 3.941406 -13.992188 2.003906 -11.867188 0.734375 -9.140625 C 0.671875 -9.023438 0.628906 -8.894531 0.609375 -8.75 C 0.585938 -8.601562 0.628906 -8.488281 0.734375 -8.40625 C 1.035156 -8.300781 1.375 -8.320312 1.75 -8.46875 C 2.125 -8.613281 2.492188 -8.820312 2.859375 -9.09375 C 3.234375 -9.375 3.550781 -9.609375 3.8125 -9.796875 C 3.84375 -9.847656 3.859375 -9.875 3.859375 -9.875 C 5.097656 -10.90625 6.304688 -11.960938 7.484375 -13.046875 C 8.015625 -13.609375 8.671875 -13.921875 9.453125 -13.984375 C 10.566406 -13.984375 11.03125 -13.488281 10.84375 -12.5 C 10.738281 -12.125 10.628906 -11.75 10.515625 -11.375 C 10.078125 -9.769531 10.0625 -8.828125 10.46875 -8.546875 C 10.875 -8.265625 11.492188 -8.265625 12.328125 -8.546875 C 13.160156 -8.828125 13.992188 -9.359375 14.828125 -10.140625 C 15.671875 -10.929688 16.378906 -11.648438 16.953125 -12.296875 C 17.535156 -12.953125 18.023438 -13.164062 18.421875 -12.9375 Z M 18.421875 -12.9375 "/></g></g></g><g fill="#000000" fill-opacity="1"><g transform="translate(271.948586, 237.959164)"><g><path d="M 0.640625 -4.5 C -0.972656 -4.5 -1.78125 -5.335938 -1.78125 -7.015625 C -1.78125 -9.054688 -0.453125 -12.664062 2.203125 -17.84375 C 2.304688 -18.070312 2.492188 -18.1875 2.765625 -18.1875 C 3.835938 -18.1875 4.375 -17.757812 4.375 -16.90625 C 4.375 -16.601562 4.28125 -16.234375 4.09375 -15.796875 C 4.019531 -15.671875 3.128906 -13.4375 1.421875 -9.09375 C 1.148438 -8.382812 1.015625 -7.859375 1.015625 -7.515625 C 1.015625 -7.140625 1.1875 -6.953125 1.53125 -6.953125 C 2.757812 -6.953125 6 -10.023438 11.25 -16.171875 C 11.925781 -17.003906 12.59375 -17.421875 13.25 -17.421875 C 14.21875 -17.421875 14.703125 -17.066406 14.703125 -16.359375 C 14.703125 -16.085938 14.40625 -15.0625 13.8125 -13.28125 C 13 -10.863281 12.59375 -9.46875 12.59375 -9.09375 C 12.59375 -8.53125 12.78125 -8.25 13.15625 -8.25 C 14.082031 -8.25 16.796875 -9.910156 21.296875 -13.234375 C 21.554688 -13.453125 21.78125 -13.5625 21.96875 -13.5625 C 22.382812 -13.5625 22.59375 -13.207031 22.59375 -12.5 C 22.59375 -12.3125 22.535156 -12.15625 22.421875 -12.03125 C 20.035156 -9.988281 18.003906 -8.429688 16.328125 -7.359375 C 14.804688 -6.378906 13.453125 -5.890625 12.265625 -5.890625 L 11.90625 -5.890625 C 10.164062 -6.265625 9.296875 -7.628906 9.296875 -9.984375 C 7.429688 -8.335938 5.882812 -7.007812 4.65625 -6 C 3.425781 -5 2.085938 -4.5 0.640625 -4.5 Z M 0.640625 -4.5 "/></g></g></g><g fill="#000000" fill-opacity="1"><g transform="translate(292.818111, 237.959164)"><g><path d="M 20.109375 -12.671875 C 20.378906 -12.328125 20.039062 -11.707031 19.09375 -10.8125 C 18.144531 -9.914062 17.132812 -9.160156 16.0625 -8.546875 C 15 -7.941406 13.765625 -7.335938 12.359375 -6.734375 C 11.429688 -6.328125 10.441406 -6.191406 9.390625 -6.328125 C 8.347656 -6.460938 7.828125 -7.09375 7.828125 -8.21875 C 7.828125 -9.351562 8.085938 -10.484375 8.609375 -11.609375 C 9.128906 -12.753906 9.238281 -13.34375 8.9375 -13.375 C 8.644531 -13.414062 8.035156 -13.140625 7.109375 -12.546875 C 4.691406 -10.953125 2.441406 -9.128906 0.359375 -7.078125 C -0.203125 -6.398438 -0.914062 -6.03125 -1.78125 -5.96875 C -2.21875 -5.96875 -2.554688 -6.109375 -2.796875 -6.390625 C -3.046875 -6.671875 -3.078125 -6.96875 -2.890625 -7.28125 C -1.398438 -10.039062 0.101562 -12.769531 1.625 -15.46875 C 1.96875 -16.019531 2.476562 -16.363281 3.15625 -16.5 C 3.4375 -16.550781 3.695312 -16.460938 3.9375 -16.234375 C 4.1875 -16.003906 4.3125 -15.75 4.3125 -15.46875 C 4.28125 -15.195312 4.171875 -14.875 3.984375 -14.5 C 3.898438 -14.28125 3.816406 -14.066406 3.734375 -13.859375 C 3.660156 -13.660156 3.632812 -13.492188 3.65625 -13.359375 C 3.6875 -13.222656 3.796875 -13.179688 3.984375 -13.234375 C 4.242188 -13.367188 4.5 -13.507812 4.75 -13.65625 C 5.394531 -14.03125 6.015625 -14.390625 6.609375 -14.734375 C 7.128906 -15.035156 7.675781 -15.300781 8.25 -15.53125 C 8.820312 -15.769531 9.425781 -15.929688 10.0625 -16.015625 C 11.070312 -16.085938 11.785156 -15.859375 12.203125 -15.328125 C 12.628906 -14.804688 12.679688 -14.082031 12.359375 -13.15625 C 12.023438 -12.3125 11.671875 -11.472656 11.296875 -10.640625 C 10.835938 -9.859375 10.757812 -9.265625 11.0625 -8.859375 C 11.375 -8.453125 12.789062 -8.921875 15.3125 -10.265625 L 17.21875 -11.375 C 19.007812 -12.53125 19.972656 -12.960938 20.109375 -12.671875 Z M 20.109375 -12.671875 "/></g></g></g><g fill="#000000" fill-opacity="1"><g transform="translate(49.221103, 196.412711)"><g><path d="M 129.46875 -71.1875 C 130.09375 -70.8125 130.488281 -70.316406 130.65625 -69.703125 C 130.832031 -69.085938 130.734375 -68.46875 130.359375 -67.84375 C 129.796875 -66.945312 129.113281 -66.125 128.3125 -65.375 C 126.664062 -63.863281 124.859375 -62.488281 122.890625 -61.25 C 112.941406 -54.75 102.226562 -49.8125 90.75 -46.4375 C 90.226562 -46.289062 89.707031 -46.125 89.1875 -45.9375 C 88.40625 -45.675781 87.609375 -45.4375 86.796875 -45.21875 C 86.578125 -45.132812 86.375 -45.160156 86.1875 -45.296875 C 86.007812 -45.429688 85.894531 -45.628906 85.84375 -45.890625 C 85.84375 -46.003906 85.890625 -46.140625 85.984375 -46.296875 C 86.078125 -46.460938 86.179688 -46.570312 86.296875 -46.625 C 87.253906 -47.019531 88.257812 -47.390625 89.3125 -47.734375 C 100.820312 -51.546875 111.609375 -56.851562 121.671875 -63.65625 C 122.898438 -64.550781 124.09375 -65.476562 125.25 -66.4375 C 125.394531 -66.59375 125.5625 -66.722656 125.75 -66.828125 C 126.34375 -67.316406 126.765625 -67.929688 127.015625 -68.671875 C 127.171875 -69.109375 127.046875 -69.476562 126.640625 -69.78125 C 126.179688 -70.070312 125.671875 -70.242188 125.109375 -70.296875 C 125.015625 -70.296875 124.90625 -70.3125 124.78125 -70.34375 C 122.59375 -70.71875 120.394531 -70.90625 118.1875 -70.90625 C 115.988281 -70.90625 113.789062 -70.8125 111.59375 -70.625 C 106.613281 -70.132812 101.65625 -69.460938 96.71875 -68.609375 C 91.78125 -67.753906 86.851562 -66.804688 81.9375 -65.765625 C 67.382812 -62.691406 53.070312 -58.789062 39 -54.0625 C 33.976562 -52.394531 29.007812 -50.613281 24.09375 -48.71875 C 19.175781 -46.832031 14.316406 -44.753906 9.515625 -42.484375 C 8.222656 -41.847656 6.925781 -41.21875 5.625 -40.59375 C 4.925781 -40.21875 4.207031 -39.847656 3.46875 -39.484375 C 3.351562 -39.441406 3.257812 -39.378906 3.1875 -39.296875 C 2.695312 -39.046875 2.191406 -38.84375 1.671875 -38.6875 C 1.421875 -38.59375 1.15625 -38.550781 0.875 -38.5625 C 0.59375 -38.582031 0.378906 -38.703125 0.234375 -38.921875 C 0.078125 -39.222656 0.0703125 -39.484375 0.21875 -39.703125 C 0.375 -39.921875 0.578125 -40.109375 0.828125 -40.265625 C 0.867188 -40.296875 0.929688 -40.328125 1.015625 -40.359375 C 2.234375 -41.066406 3.488281 -41.757812 4.78125 -42.4375 C 8.957031 -44.550781 13.203125 -46.5 17.515625 -48.28125 C 21.835938 -50.0625 26.210938 -51.734375 30.640625 -53.296875 C 48.429688 -59.648438 66.578125 -64.679688 85.078125 -68.390625 C 89.535156 -69.285156 93.992188 -70.101562 98.453125 -70.84375 C 102.910156 -71.59375 107.398438 -72.148438 111.921875 -72.515625 C 113.222656 -72.585938 114.539062 -72.65625 115.875 -72.71875 C 116.46875 -72.769531 117.082031 -72.8125 117.71875 -72.84375 C 120.507812 -72.84375 123.296875 -72.644531 126.078125 -72.25 C 127.253906 -72.09375 128.382812 -71.738281 129.46875 -71.1875 Z M 60.625 -19.328125 C 60.875 -19.273438 61.113281 -19.179688 61.34375 -19.046875 C 61.570312 -18.921875 61.738281 -18.78125 61.84375 -18.625 C 61.957031 -18.476562 61.972656 -18.335938 61.890625 -18.203125 C 61.703125 -17.972656 61.488281 -17.835938 61.25 -17.796875 C 61.019531 -17.765625 60.789062 -17.75 60.5625 -17.75 C 60.519531 -17.75 60.476562 -17.75 60.4375 -17.75 C 56.476562 -17.75 52.488281 -17.5625 48.46875 -17.1875 C 46.351562 -17.007812 44.21875 -16.859375 42.0625 -16.734375 C 41.351562 -16.703125 40.867188 -16.332031 40.609375 -15.625 C 40.390625 -15.0625 40.144531 -14.503906 39.875 -13.953125 C 39.738281 -13.628906 39.613281 -13.300781 39.5 -12.96875 C 38.976562 -11.769531 38.484375 -10.59375 38.015625 -9.4375 C 33.921875 0.5 29.664062 10.375 25.25 20.1875 C 23.976562 22.90625 22.632812 25.578125 21.21875 28.203125 C 21.21875 28.242188 21.203125 28.28125 21.171875 28.3125 C 20.734375 29.164062 20.175781 29.984375 19.5 30.765625 C 18.90625 31.472656 18.128906 31.71875 17.171875 31.5 C 16.898438 31.414062 16.671875 31.28125 16.484375 31.09375 C 16.296875 30.90625 16.203125 30.671875 16.203125 30.390625 C 16.253906 29.742188 16.375 29.109375 16.5625 28.484375 C 16.695312 28.046875 16.835938 27.582031 16.984375 27.09375 C 17.734375 24.675781 18.519531 22.265625 19.34375 19.859375 C 23.0625 9.203125 27.382812 -1.195312 32.3125 -11.34375 C 32.769531 -12.300781 33.3125 -13.25 33.9375 -14.1875 C 34.082031 -14.40625 34.296875 -14.535156 34.578125 -14.578125 C 34.859375 -14.617188 35.125 -14.597656 35.375 -14.515625 C 35.832031 -14.378906 36 -14.03125 35.875 -13.46875 C 35.757812 -12.914062 35.53125 -12.273438 35.1875 -11.546875 C 34.84375 -10.816406 34.5 -10.175781 34.15625 -9.625 C 33.882812 -9.164062 33.703125 -8.828125 33.609375 -8.609375 C 28.503906 2.347656 25.65625 8.738281 25.0625 10.5625 C 24.84375 11.1875 24.734375 11.609375 24.734375 11.828125 C 24.734375 12.046875 24.8125 12.132812 24.96875 12.09375 C 25.125 12.0625 25.289062 11.960938 25.46875 11.796875 C 25.65625 11.628906 25.828125 11.453125 25.984375 11.265625 C 26.148438 11.078125 26.257812 10.953125 26.3125 10.890625 C 26.53125 10.328125 26.765625 9.753906 27.015625 9.171875 C 27.847656 7.265625 28.664062 5.363281 29.46875 3.46875 C 29.726562 2.914062 29.972656 2.359375 30.203125 1.796875 C 31.941406 -2.316406 33.664062 -6.4375 35.375 -10.5625 C 35.457031 -10.707031 35.566406 -10.9375 35.703125 -11.25 C 36.003906 -11.832031 36.320312 -12.519531 36.65625 -13.3125 C 37 -14.113281 37.21875 -14.828125 37.3125 -15.453125 C 37.40625 -16.085938 37.238281 -16.421875 36.8125 -16.453125 C 35.96875 -16.453125 35.117188 -16.453125 34.265625 -16.453125 C 33.703125 -16.453125 33.144531 -16.453125 32.59375 -16.453125 C 32.113281 -16.453125 31.613281 -16.453125 31.09375 -16.453125 C 29.457031 -16.453125 27.820312 -16.476562 26.1875 -16.53125 C 25.75 -16.5625 25.34375 -16.671875 24.96875 -16.859375 C 24.9375 -16.898438 24.90625 -16.960938 24.875 -17.046875 C 24.851562 -17.140625 24.828125 -17.25 24.796875 -17.375 C 24.796875 -17.40625 24.796875 -17.4375 24.796875 -17.46875 C 24.796875 -17.5 24.816406 -17.535156 24.859375 -17.578125 C 24.898438 -17.628906 24.9375 -17.671875 24.96875 -17.703125 C 25.1875 -17.847656 25.40625 -17.9375 25.625 -17.96875 C 25.84375 -18.007812 26.070312 -18.03125 26.3125 -18.03125 C 26.375 -18.03125 26.441406 -18.03125 26.515625 -18.03125 C 27.441406 -18.0625 28.367188 -18.09375 29.296875 -18.125 C 31.710938 -18.28125 34.128906 -18.375 36.546875 -18.40625 C 37.367188 -18.40625 38.007812 -18.582031 38.46875 -18.9375 C 38.9375 -19.289062 39.296875 -19.84375 39.546875 -20.59375 C 40.742188 -23.675781 41.953125 -26.753906 43.171875 -29.828125 C 44.472656 -33.097656 45.753906 -36.375 47.015625 -39.65625 C 47.984375 -42.164062 48.894531 -44.6875 49.75 -47.21875 C 50.226562 -48.550781 50.710938 -49.90625 51.203125 -51.28125 C 51.203125 -51.332031 51.21875 -51.375 51.25 -51.40625 C 51.4375 -52 51.679688 -52.539062 51.984375 -53.03125 C 52.171875 -53.28125 52.394531 -53.410156 52.65625 -53.421875 C 52.914062 -53.441406 53.191406 -53.421875 53.484375 -53.359375 C 53.703125 -53.234375 53.878906 -53.085938 54.015625 -52.921875 C 54.148438 -52.753906 54.195312 -52.5625 54.15625 -52.34375 C 54.039062 -51.5 53.875 -50.660156 53.65625 -49.828125 C 52.425781 -45.773438 51.035156 -41.800781 49.484375 -37.90625 C 49.398438 -37.800781 49.335938 -37.691406 49.296875 -37.578125 C 47.898438 -33.898438 46.457031 -30.242188 44.96875 -26.609375 C 44.289062 -24.941406 43.617188 -23.269531 42.953125 -21.59375 C 42.953125 -21.5625 42.953125 -21.546875 42.953125 -21.546875 C 42.765625 -21.054688 42.578125 -20.550781 42.390625 -20.03125 C 42.203125 -19.5625 42.191406 -19.21875 42.359375 -19 C 42.523438 -18.789062 42.890625 -18.6875 43.453125 -18.6875 C 44.191406 -18.6875 44.9375 -18.726562 45.6875 -18.8125 C 46.019531 -18.8125 46.351562 -18.8125 46.6875 -18.8125 C 46.757812 -18.8125 46.8125 -18.828125 46.84375 -18.859375 C 51.113281 -19.015625 55.367188 -19.171875 59.609375 -19.328125 C 59.941406 -19.359375 60.28125 -19.359375 60.625 -19.328125 Z M 60.625 -19.328125 "/></g></g></g><g fill="#000000" fill-opacity="1"><g transform="translate(112.051269, 196.412711)"><g><path d="M 111.140625 -61.109375 C 111.015625 -60.796875 110.894531 -60.488281 110.78125 -60.1875 C 109.601562 -57.113281 108.328125 -54.09375 106.953125 -51.125 C 99.898438 -36.457031 92.320312 -22.269531 84.21875 -8.5625 C 81.582031 -4.132812 78.890625 0.210938 76.140625 4.484375 C 73.390625 8.753906 70.625 13.007812 67.84375 17.25 C 67.175781 18.238281 66.507812 19.234375 65.84375 20.234375 C 65.800781 20.316406 65.765625 20.375 65.734375 20.40625 C 65.585938 20.707031 65.410156 20.957031 65.203125 21.15625 C 65.003906 21.363281 64.734375 21.46875 64.390625 21.46875 C 64.242188 21.46875 64.082031 21.429688 63.90625 21.359375 C 63.738281 21.285156 63.601562 21.1875 63.5 21.0625 C 63.414062 20.96875 63.359375 20.804688 63.328125 20.578125 C 63.296875 20.347656 63.3125 20.164062 63.375 20.03125 C 63.832031 19.050781 64.34375 18.125 64.90625 17.25 C 66.15625 15.207031 67.410156 13.160156 68.671875 11.109375 C 71.054688 7.316406 73.394531 3.515625 75.6875 -0.296875 C 80.78125 -8.804688 85.648438 -17.492188 90.296875 -26.359375 C 94.941406 -35.222656 99.472656 -44.179688 103.890625 -53.234375 C 105.671875 -56.722656 107.132812 -60.457031 108.28125 -64.4375 C 108.507812 -65.132812 108.6875 -65.851562 108.8125 -66.59375 C 108.945312 -67.332031 109.015625 -68.101562 109.015625 -68.90625 C 108.890625 -70.601562 108.160156 -71.34375 106.828125 -71.125 C 105.648438 -70.894531 104.535156 -70.523438 103.484375 -70.015625 C 101.003906 -68.816406 98.554688 -67.492188 96.140625 -66.046875 C 83.179688 -58.171875 71.375 -48.398438 60.71875 -36.734375 C 60.570312 -36.554688 60.40625 -36.375 60.21875 -36.1875 C 56.539062 -32.1875 52.890625 -28.148438 49.265625 -24.078125 C 45.640625 -20.015625 42.125 -15.828125 38.71875 -11.515625 C 38.007812 -10.617188 37.265625 -9.785156 36.484375 -9.015625 C 35.660156 -8.148438 34.675781 -7.8125 33.53125 -8 C 33.039062 -8.070312 32.640625 -8.3125 32.328125 -8.71875 C 32.015625 -9.132812 31.890625 -9.617188 31.953125 -10.171875 C 32.191406 -11.691406 32.53125 -13.160156 32.96875 -14.578125 C 34.332031 -19.078125 35.785156 -23.507812 37.328125 -27.875 C 37.546875 -28.550781 37.75 -29.203125 37.9375 -29.828125 C 38.34375 -31.460938 38.914062 -32.972656 39.65625 -34.359375 C 39.65625 -34.390625 39.640625 -34.40625 39.609375 -34.40625 C 39.421875 -34.507812 39.234375 -34.585938 39.046875 -34.640625 C 38.859375 -34.703125 38.671875 -34.644531 38.484375 -34.46875 C 37.804688 -33.71875 37.160156 -32.941406 36.546875 -32.140625 C 31.410156 -25.179688 26.328125 -18.164062 21.296875 -11.09375 C 16.265625 -4.019531 11.351562 3.171875 6.5625 10.484375 C 6.15625 11.191406 5.703125 11.769531 5.203125 12.21875 C 4.703125 12.664062 4.039062 12.8125 3.21875 12.65625 C 2.84375 12.5625 2.550781 12.335938 2.34375 11.984375 C 2.144531 11.628906 2.109375 11.28125 2.234375 10.9375 C 2.671875 9.9375 3.148438 8.992188 3.671875 8.109375 C 5.160156 5.535156 6.628906 2.96875 8.078125 0.40625 C 10.992188 -4.675781 13.890625 -9.785156 16.765625 -14.921875 C 21.222656 -22.785156 25.195312 -31.0625 28.6875 -39.75 C 30.050781 -43.09375 31.164062 -46.609375 32.03125 -50.296875 C 32.5 -52.253906 32.703125 -54.296875 32.640625 -56.421875 C 32.421875 -59.828125 31.289062 -62.265625 29.25 -63.734375 C 27.207031 -65.203125 24.519531 -65.894531 21.1875 -65.8125 C 17.863281 -65.738281 14.175781 -65.0625 10.125 -63.78125 C 6.070312 -62.5 1.921875 -60.800781 -2.328125 -58.6875 C -6.578125 -56.582031 -10.675781 -54.253906 -14.625 -51.703125 C -18.582031 -49.160156 -22.097656 -46.578125 -25.171875 -43.953125 C -28.253906 -41.335938 -30.660156 -38.882812 -32.390625 -36.59375 C -34.191406 -34.0625 -35.726562 -31.273438 -37 -28.234375 C -37.632812 -26.785156 -38.003906 -25.207031 -38.109375 -23.5 C -38.140625 -23.164062 -38.304688 -22.910156 -38.609375 -22.734375 C -38.921875 -22.566406 -39.257812 -22.519531 -39.625 -22.59375 C -40.21875 -22.769531 -40.59375 -23.234375 -40.75 -23.984375 C -40.84375 -24.960938 -40.765625 -25.851562 -40.515625 -26.65625 C -39.953125 -28.707031 -39.207031 -30.644531 -38.28125 -32.46875 C -36.582031 -35.65625 -33.992188 -38.910156 -30.515625 -42.234375 C -27.035156 -45.554688 -22.984375 -48.738281 -18.359375 -51.78125 C -13.734375 -54.832031 -8.90625 -57.550781 -3.875 -59.9375 C 1.15625 -62.332031 6.078125 -64.191406 10.890625 -65.515625 C 15.703125 -66.847656 20.035156 -67.445312 23.890625 -67.3125 C 27.742188 -67.175781 30.785156 -66.113281 33.015625 -64.125 C 35.242188 -62.144531 36.328125 -59.019531 36.265625 -54.75 C 36.140625 -52 35.707031 -49.378906 34.96875 -46.890625 C 33.882812 -43.242188 32.640625 -39.71875 31.234375 -36.3125 C 29.828125 -32.914062 28.328125 -29.585938 26.734375 -26.328125 C 26.242188 -25.316406 26.140625 -24.820312 26.421875 -24.84375 C 26.703125 -24.875 27.117188 -25.257812 27.671875 -26 C 29.679688 -28.664062 31.691406 -31.300781 33.703125 -33.90625 C 35.066406 -35.644531 36.457031 -37.347656 37.875 -39.015625 C 38.0625 -39.253906 38.25 -39.484375 38.4375 -39.703125 C 39.25 -40.703125 40.226562 -41.367188 41.375 -41.703125 C 42.238281 -41.890625 42.960938 -41.695312 43.546875 -41.125 C 44.140625 -40.550781 44.34375 -39.691406 44.15625 -38.546875 C 44.125 -38.421875 44.09375 -38.300781 44.0625 -38.1875 C 43.757812 -36.695312 43.40625 -35.253906 43 -33.859375 C 41.914062 -30.429688 40.800781 -27.03125 39.65625 -23.65625 C 39.09375 -21.914062 38.535156 -20.148438 37.984375 -18.359375 C 37.867188 -18.109375 37.695312 -17.644531 37.46875 -16.96875 C 37.25 -16.375 37.039062 -15.789062 36.84375 -15.21875 C 36.644531 -14.644531 36.484375 -14.207031 36.359375 -13.90625 C 36.515625 -14.019531 37.890625 -15.5625 40.484375 -18.53125 C 44.015625 -22.582031 48.191406 -27.328125 53.015625 -32.765625 C 57.847656 -38.203125 61.640625 -42.351562 64.390625 -45.21875 C 69.472656 -50.332031 74.828125 -54.988281 80.453125 -59.1875 C 86.085938 -63.382812 91.925781 -67.179688 97.96875 -70.578125 C 99.457031 -71.347656 100.984375 -72.046875 102.546875 -72.671875 C 102.890625 -72.785156 103.222656 -72.921875 103.546875 -73.078125 C 105.023438 -73.671875 106.601562 -73.890625 108.28125 -73.734375 C 111.488281 -73.429688 112.957031 -71.40625 112.6875 -67.65625 C 112.5 -65.332031 111.984375 -63.148438 111.140625 -61.109375 Z M 39.484375 -34.5625 C 39.566406 -34.5 39.625 -34.445312 39.65625 -34.40625 C 39.65625 -34.40625 39.65625 -34.390625 39.65625 -34.359375 C 39.6875 -34.359375 39.703125 -34.375 39.703125 -34.40625 C 39.640625 -34.445312 39.566406 -34.5 39.484375 -34.5625 Z M 39.484375 -34.5625 "/></g></g></g><path stroke-linecap="butt" transform="matrix(1.496521, 0, 0, 1.5, 221.953041, 131.740743)" fill="none" stroke-linejoin="miter" d="M 0.0000560466 0.000962767 L 60.648514 0.000962767 " stroke="#000000" stroke-width="1" stroke-opacity="1" stroke-miterlimit="4"/><path stroke-linecap="butt" transform="matrix(0.000000000000000092, 1.50338, -1.5, 0.000000000000000092, 312.923012, 130.992179)" fill="none" stroke-linejoin="miter" d="M 0.00000592121 0.000757968 L 69.346359 0.000757968 " stroke="#000000" stroke-width="1" stroke-opacity="1" stroke-miterlimit="4"/><path stroke-linecap="butt" transform="matrix(1.500219, 0, 0, 1.5, 71.457101, 234.259233)" fill="none" stroke-linejoin="miter" d="M -0.0000462317 -0.000946745 L 160.479133 -0.000946745 " stroke="#000000" stroke-width="1" stroke-opacity="1" stroke-miterlimit="4"/><path stroke-linecap="butt" transform="matrix(0.00000000000000009, 1.474762, -1.5, 0.000000000000000092, 72.206587, 217.489205)" fill="none" stroke-linejoin="miter" d="M -0.000626317 -0.000296194 L 10.679061 -0.000296194 " stroke="#000000" stroke-width="1" stroke-opacity="1" stroke-miterlimit="4"/><g fill="#000000" fill-opacity="1"><g transform="translate(229.731628, 228.668886)"><g><path d="M 35.671875 -61.96875 C 35.691406 -61.800781 35.691406 -61.566406 35.671875 -61.265625 C 35.660156 -61.179688 35.664062 -61.085938 35.6875 -60.984375 L 35.59375 -60.71875 C 35.507812 -60.53125 35.425781 -60.332031 35.34375 -60.125 C 35.101562 -59.519531 34.867188 -58.925781 34.640625 -58.34375 C 33.160156 -54.945312 31.582031 -51.617188 29.90625 -48.359375 C 29.507812 -47.515625 29.101562 -46.671875 28.6875 -45.828125 C 23.207031 -34.597656 17.550781 -23.46875 11.71875 -12.4375 C 9.800781 -8.707031 7.898438 -4.957031 6.015625 -1.1875 C 5.503906 -0.207031 5.019531 0.769531 4.5625 1.75 C 4.257812 2.414062 3.90625 2.8125 3.5 2.9375 C 2.90625 3.09375 2.550781 2.960938 2.4375 2.546875 C 2.332031 2.140625 2.460938 1.535156 2.828125 0.734375 C 3.054688 0.265625 3.300781 -0.207031 3.5625 -0.6875 C 5.582031 -4.820312 7.632812 -8.941406 9.71875 -13.046875 C 9.789062 -13.210938 9.875 -13.382812 9.96875 -13.5625 C 13.507812 -20.476562 17.019531 -27.414062 20.5 -34.375 C 23.976562 -41.34375 27.414062 -48.335938 30.8125 -55.359375 C 30.875 -55.535156 30.960938 -55.710938 31.078125 -55.890625 C 31.929688 -57.640625 32.710938 -59.429688 33.421875 -61.265625 C 33.671875 -61.878906 34.03125 -62.253906 34.5 -62.390625 C 35.039062 -62.585938 35.429688 -62.445312 35.671875 -61.96875 Z M 35.671875 -61.96875 "/></g></g></g><g fill="#000000" fill-opacity="1"><g transform="translate(216.954086, 205.284097)"><g><path d="M 5.296875 -13.453125 C 5.265625 -13.890625 5.410156 -14.179688 5.734375 -14.328125 C 7.554688 -15.222656 9.4375 -16.046875 11.375 -16.796875 L 12.5 -17.28125 L 14.59375 -18.015625 L 20.28125 -20.125 C 20.707031 -20.300781 21.15625 -20.429688 21.625 -20.515625 C 21.957031 -20.578125 22.15625 -20.25 22.21875 -19.53125 C 22.332031 -18.84375 22.207031 -18.394531 21.84375 -18.1875 C 21.769531 -18.125 21.640625 -18.050781 21.453125 -17.96875 L 20.28125 -17.546875 C 18.5625 -16.867188 16.773438 -16.1875 14.921875 -15.5 L 12.8125 -14.796875 C 11.351562 -14.304688 9.757812 -13.8125 8.03125 -13.3125 C 9.425781 -12.832031 10.703125 -12.34375 11.859375 -11.84375 L 13.578125 -11.15625 C 15.035156 -10.46875 16.4375 -9.785156 17.78125 -9.109375 L 18.671875 -8.625 C 18.816406 -8.582031 18.910156 -8.53125 18.953125 -8.46875 C 19.191406 -8.257812 19.066406 -7.8125 18.578125 -7.125 C 18.078125 -6.414062 17.679688 -6.09375 17.390625 -6.15625 C 16.992188 -6.238281 16.617188 -6.34375 16.265625 -6.46875 L 11.796875 -8.5625 L 10.125 -9.375 L 9.28125 -9.8125 C 7.78125 -10.5625 6.363281 -11.398438 5.03125 -12.328125 C 4.78125 -12.472656 4.867188 -12.847656 5.296875 -13.453125 Z M 5.296875 -13.453125 "/></g></g></g><g fill="#000000" fill-opacity="1"><g transform="translate(242.12105, 205.284097)"><g/></g></g><g fill="#000000" fill-opacity="1"><g transform="translate(260.575196, 205.284097)"><g><path d="M 20.625 -13.453125 C 20.695312 -12.847656 20.578125 -12.472656 20.265625 -12.328125 C 18.390625 -11.398438 16.484375 -10.5625 14.546875 -9.8125 L 13.421875 -9.375 L 11.328125 -8.5625 L 5.6875 -6.46875 C 5.226562 -6.34375 4.78125 -6.238281 4.34375 -6.15625 C 3.988281 -6.09375 3.78125 -6.414062 3.71875 -7.125 C 3.601562 -7.8125 3.722656 -8.257812 4.078125 -8.46875 C 4.191406 -8.53125 4.320312 -8.582031 4.46875 -8.625 L 5.6875 -9.109375 C 7.382812 -9.785156 9.160156 -10.46875 11.015625 -11.15625 L 13.109375 -11.84375 C 14.578125 -12.34375 16.15625 -12.832031 17.84375 -13.3125 C 16.363281 -13.8125 15.039062 -14.304688 13.875 -14.796875 L 12.203125 -15.5 C 10.691406 -16.1875 9.296875 -16.867188 8.015625 -17.546875 L 7.03125 -17.96875 C 6.90625 -18.050781 6.816406 -18.125 6.765625 -18.1875 C 6.554688 -18.394531 6.6875 -18.84375 7.15625 -19.53125 C 7.65625 -20.25 8.046875 -20.578125 8.328125 -20.515625 C 8.765625 -20.429688 9.140625 -20.300781 9.453125 -20.125 L 13.921875 -18.015625 L 15.578125 -17.28125 L 16.5 -16.796875 C 18 -16.046875 19.390625 -15.222656 20.671875 -14.328125 C 20.890625 -14.179688 20.875 -13.890625 20.625 -13.453125 Z M 20.625 -13.453125 "/></g></g></g></svg>