<svg xmlns="http://www.w3.org/2000/svg" xmlns:xlink="http://www.w3.org/1999/xlink" width="500" zoomAndPan="magnify" viewBox="0 0 375 374.999991" height="500" preserveAspectRatio="xMidYMid meet" version="1.0"><defs><g/></defs><g fill="#000000" fill-opacity="1"><g transform="translate(61.106203, 192.809643)"><g><path d="M 129.4375 -71.15625 C 130.0625 -70.789062 130.457031 -70.296875 130.625 -69.671875 C 130.789062 -69.054688 130.6875 -68.4375 130.3125 -67.8125 C 129.757812 -66.914062 129.078125 -66.097656 128.265625 -65.359375 C 126.628906 -63.835938 124.820312 -62.460938 122.84375 -61.234375 C 112.90625 -54.734375 102.203125 -49.796875 90.734375 -46.421875 C 90.203125 -46.273438 89.675781 -46.109375 89.15625 -45.921875 C 88.382812 -45.671875 87.59375 -45.4375 86.78125 -45.21875 C 86.5625 -45.125 86.359375 -45.144531 86.171875 -45.28125 C 85.984375 -45.414062 85.863281 -45.613281 85.8125 -45.875 C 85.8125 -45.988281 85.859375 -46.125 85.953125 -46.28125 C 86.046875 -46.445312 86.148438 -46.554688 86.265625 -46.609375 C 87.234375 -47.015625 88.238281 -47.382812 89.28125 -47.71875 C 100.789062 -51.53125 111.578125 -56.835938 121.640625 -63.640625 C 122.867188 -64.535156 124.054688 -65.460938 125.203125 -66.421875 C 125.359375 -66.578125 125.53125 -66.703125 125.71875 -66.796875 C 126.300781 -67.285156 126.722656 -67.90625 126.984375 -68.65625 C 127.128906 -69.09375 127 -69.460938 126.59375 -69.765625 C 126.132812 -70.054688 125.628906 -70.222656 125.078125 -70.265625 C 124.972656 -70.265625 124.863281 -70.285156 124.75 -70.328125 C 122.550781 -70.691406 120.347656 -70.875 118.140625 -70.875 C 115.941406 -70.875 113.75 -70.785156 111.5625 -70.609375 C 106.582031 -70.117188 101.625 -69.445312 96.6875 -68.59375 C 91.75 -67.738281 86.828125 -66.785156 81.921875 -65.734375 C 67.367188 -62.671875 53.054688 -58.773438 38.984375 -54.046875 C 33.972656 -52.378906 29.003906 -50.597656 24.078125 -48.703125 C 19.160156 -46.816406 14.304688 -44.742188 9.515625 -42.484375 C 8.210938 -41.835938 6.914062 -41.203125 5.625 -40.578125 C 4.925781 -40.203125 4.207031 -39.832031 3.46875 -39.46875 C 3.351562 -39.4375 3.257812 -39.375 3.1875 -39.28125 C 2.695312 -39.03125 2.191406 -38.832031 1.671875 -38.6875 C 1.421875 -38.582031 1.15625 -38.535156 0.875 -38.546875 C 0.59375 -38.566406 0.378906 -38.6875 0.234375 -38.90625 C 0.078125 -39.207031 0.0703125 -39.46875 0.21875 -39.6875 C 0.375 -39.90625 0.578125 -40.09375 0.828125 -40.25 C 0.867188 -40.28125 0.929688 -40.3125 1.015625 -40.34375 C 2.222656 -41.0625 3.476562 -41.753906 4.78125 -42.421875 C 8.945312 -44.535156 13.191406 -46.484375 17.515625 -48.265625 C 21.835938 -50.046875 26.207031 -51.71875 30.625 -53.28125 C 48.414062 -59.632812 66.5625 -64.664062 85.0625 -68.375 C 89.507812 -69.269531 93.960938 -70.085938 98.421875 -70.828125 C 102.878906 -71.566406 107.367188 -72.125 111.890625 -72.5 C 113.191406 -72.5625 114.507812 -72.628906 115.84375 -72.703125 C 116.425781 -72.753906 117.039062 -72.796875 117.6875 -72.828125 C 120.46875 -72.828125 123.253906 -72.625 126.046875 -72.21875 C 127.222656 -72.070312 128.351562 -71.71875 129.4375 -71.15625 Z M 60.609375 -19.3125 C 60.859375 -19.257812 61.097656 -19.171875 61.328125 -19.046875 C 61.554688 -18.921875 61.722656 -18.78125 61.828125 -18.625 C 61.941406 -18.476562 61.957031 -18.335938 61.875 -18.203125 C 61.6875 -17.960938 61.472656 -17.828125 61.234375 -17.796875 C 60.992188 -17.765625 60.765625 -17.75 60.546875 -17.75 C 60.492188 -17.75 60.453125 -17.75 60.421875 -17.75 C 56.453125 -17.75 52.460938 -17.5625 48.453125 -17.1875 C 46.335938 -17 44.203125 -16.847656 42.046875 -16.734375 C 41.335938 -16.703125 40.859375 -16.332031 40.609375 -15.625 C 40.390625 -15.0625 40.144531 -14.503906 39.875 -13.953125 C 39.738281 -13.628906 39.609375 -13.300781 39.484375 -12.96875 C 38.960938 -11.757812 38.46875 -10.582031 38 -9.4375 C 33.914062 0.5 29.660156 10.367188 25.234375 20.171875 C 23.972656 22.890625 22.632812 25.566406 21.21875 28.203125 C 21.21875 28.234375 21.195312 28.265625 21.15625 28.296875 C 20.71875 29.160156 20.160156 29.976562 19.484375 30.75 C 18.898438 31.457031 18.125 31.703125 17.15625 31.484375 C 16.894531 31.398438 16.671875 31.265625 16.484375 31.078125 C 16.296875 30.898438 16.203125 30.664062 16.203125 30.375 C 16.253906 29.738281 16.375 29.109375 16.5625 28.484375 C 16.695312 28.046875 16.835938 27.582031 16.984375 27.09375 C 17.722656 24.675781 18.507812 22.257812 19.34375 19.84375 C 23.050781 9.195312 27.367188 -1.195312 32.296875 -11.34375 C 32.753906 -12.300781 33.296875 -13.242188 33.921875 -14.171875 C 34.078125 -14.390625 34.289062 -14.519531 34.5625 -14.5625 C 34.84375 -14.601562 35.109375 -14.582031 35.359375 -14.5 C 35.816406 -14.363281 35.984375 -14.015625 35.859375 -13.453125 C 35.742188 -12.898438 35.515625 -12.257812 35.171875 -11.53125 C 34.828125 -10.8125 34.488281 -10.175781 34.15625 -9.625 C 33.882812 -9.164062 33.695312 -8.828125 33.59375 -8.609375 C 28.5 2.347656 25.65625 8.738281 25.0625 10.5625 C 24.84375 11.1875 24.734375 11.609375 24.734375 11.828125 C 24.734375 12.046875 24.804688 12.132812 24.953125 12.09375 C 25.109375 12.0625 25.28125 11.960938 25.46875 11.796875 C 25.65625 11.628906 25.828125 11.453125 25.984375 11.265625 C 26.140625 11.078125 26.242188 10.953125 26.296875 10.890625 C 26.515625 10.328125 26.753906 9.75 27.015625 9.15625 C 27.835938 7.25 28.65625 5.351562 29.46875 3.46875 C 29.71875 2.90625 29.960938 2.347656 30.203125 1.796875 C 31.941406 -2.316406 33.660156 -6.4375 35.359375 -10.5625 C 35.441406 -10.707031 35.550781 -10.929688 35.6875 -11.234375 C 36 -11.828125 36.320312 -12.519531 36.65625 -13.3125 C 36.988281 -14.101562 37.203125 -14.816406 37.296875 -15.453125 C 37.390625 -16.085938 37.226562 -16.421875 36.8125 -16.453125 C 35.96875 -16.453125 35.113281 -16.453125 34.25 -16.453125 C 33.695312 -16.453125 33.140625 -16.453125 32.578125 -16.453125 C 32.109375 -16.453125 31.613281 -16.453125 31.09375 -16.453125 C 29.445312 -16.453125 27.804688 -16.476562 26.171875 -16.53125 C 25.734375 -16.5625 25.328125 -16.671875 24.953125 -16.859375 C 24.921875 -16.890625 24.890625 -16.953125 24.859375 -17.046875 C 24.835938 -17.140625 24.8125 -17.242188 24.78125 -17.359375 C 24.78125 -17.398438 24.78125 -17.4375 24.78125 -17.46875 C 24.78125 -17.5 24.800781 -17.535156 24.84375 -17.578125 C 24.882812 -17.617188 24.921875 -17.65625 24.953125 -17.6875 C 25.171875 -17.84375 25.390625 -17.9375 25.609375 -17.96875 C 25.835938 -18.007812 26.066406 -18.03125 26.296875 -18.03125 C 26.367188 -18.03125 26.4375 -18.03125 26.5 -18.03125 C 27.425781 -18.0625 28.351562 -18.09375 29.28125 -18.125 C 31.695312 -18.28125 34.113281 -18.375 36.53125 -18.40625 C 37.351562 -18.40625 37.992188 -18.582031 38.453125 -18.9375 C 38.921875 -19.289062 39.285156 -19.835938 39.546875 -20.578125 C 40.742188 -23.671875 41.945312 -26.75 43.15625 -29.8125 C 44.457031 -33.09375 45.742188 -36.367188 47.015625 -39.640625 C 47.972656 -42.160156 48.882812 -44.6875 49.75 -47.21875 C 50.21875 -48.550781 50.695312 -49.898438 51.1875 -51.265625 C 51.1875 -51.316406 51.203125 -51.359375 51.234375 -51.390625 C 51.421875 -51.984375 51.664062 -52.523438 51.96875 -53.015625 C 52.15625 -53.265625 52.378906 -53.394531 52.640625 -53.40625 C 52.898438 -53.425781 53.175781 -53.40625 53.46875 -53.34375 C 53.6875 -53.21875 53.863281 -53.070312 54 -52.90625 C 54.132812 -52.738281 54.179688 -52.546875 54.140625 -52.328125 C 54.023438 -51.484375 53.859375 -50.644531 53.640625 -49.8125 C 52.410156 -45.769531 51.019531 -41.796875 49.46875 -37.890625 C 49.382812 -37.796875 49.320312 -37.6875 49.28125 -37.5625 C 47.882812 -33.882812 46.441406 -30.234375 44.953125 -26.609375 C 44.285156 -24.929688 43.613281 -23.257812 42.9375 -21.59375 C 42.9375 -21.5625 42.9375 -21.546875 42.9375 -21.546875 C 42.75 -21.054688 42.5625 -20.550781 42.375 -20.03125 C 42.1875 -19.550781 42.175781 -19.207031 42.34375 -19 C 42.519531 -18.789062 42.882812 -18.6875 43.4375 -18.6875 C 44.175781 -18.6875 44.921875 -18.726562 45.671875 -18.8125 C 46.003906 -18.8125 46.335938 -18.8125 46.671875 -18.8125 C 46.742188 -18.8125 46.796875 -18.828125 46.828125 -18.859375 C 51.097656 -19.015625 55.351562 -19.164062 59.59375 -19.3125 C 59.925781 -19.34375 60.265625 -19.34375 60.609375 -19.3125 Z M 60.609375 -19.3125 "/></g></g></g><g fill="#000000" fill-opacity="1"><g transform="translate(123.940595, 192.809643)"><g><path d="M 111.109375 -61.078125 C 110.984375 -60.773438 110.863281 -60.472656 110.75 -60.171875 C 109.570312 -57.097656 108.296875 -54.078125 106.921875 -51.109375 C 99.867188 -36.441406 92.296875 -22.257812 84.203125 -8.5625 C 81.566406 -4.132812 78.875 0.210938 76.125 4.484375 C 73.375 8.753906 70.601562 13.003906 67.8125 17.234375 C 67.15625 18.234375 66.488281 19.226562 65.8125 20.21875 C 65.78125 20.3125 65.75 20.375 65.71875 20.40625 C 65.5625 20.707031 65.378906 20.957031 65.171875 21.15625 C 64.972656 21.363281 64.707031 21.46875 64.375 21.46875 C 64.21875 21.46875 64.054688 21.425781 63.890625 21.34375 C 63.722656 21.269531 63.585938 21.175781 63.484375 21.0625 C 63.398438 20.957031 63.34375 20.789062 63.3125 20.5625 C 63.28125 20.332031 63.296875 20.15625 63.359375 20.03125 C 63.816406 19.050781 64.320312 18.117188 64.875 17.234375 C 66.125 15.191406 67.382812 13.148438 68.65625 11.109375 C 71.03125 7.316406 73.367188 3.515625 75.671875 -0.296875 C 80.765625 -8.804688 85.628906 -17.488281 90.265625 -26.34375 C 94.910156 -35.207031 99.441406 -44.160156 103.859375 -53.203125 C 105.628906 -56.703125 107.09375 -60.441406 108.25 -64.421875 C 108.476562 -65.117188 108.65625 -65.835938 108.78125 -66.578125 C 108.914062 -67.316406 108.984375 -68.082031 108.984375 -68.875 C 108.859375 -70.582031 108.128906 -71.328125 106.796875 -71.109375 C 105.617188 -70.867188 104.503906 -70.5 103.453125 -70 C 100.972656 -68.800781 98.53125 -67.472656 96.125 -66.015625 C 83.15625 -58.148438 71.347656 -48.390625 60.703125 -36.734375 C 60.546875 -36.546875 60.378906 -36.359375 60.203125 -36.171875 C 56.515625 -32.171875 52.859375 -28.132812 49.234375 -24.0625 C 45.617188 -20 42.109375 -15.816406 38.703125 -11.515625 C 37.992188 -10.617188 37.253906 -9.785156 36.484375 -9.015625 C 35.648438 -8.148438 34.660156 -7.8125 33.515625 -8 C 33.023438 -8.0625 32.625 -8.300781 32.3125 -8.71875 C 32 -9.132812 31.878906 -9.617188 31.953125 -10.171875 C 32.179688 -11.691406 32.515625 -13.160156 32.953125 -14.578125 C 34.328125 -19.066406 35.78125 -23.5 37.3125 -27.875 C 37.53125 -28.550781 37.734375 -29.195312 37.921875 -29.8125 C 38.328125 -31.457031 38.898438 -32.96875 39.640625 -34.34375 C 39.640625 -34.382812 39.625 -34.40625 39.59375 -34.40625 C 39.40625 -34.5 39.21875 -34.578125 39.03125 -34.640625 C 38.84375 -34.703125 38.660156 -34.640625 38.484375 -34.453125 C 37.804688 -33.710938 37.15625 -32.9375 36.53125 -32.125 C 31.394531 -25.164062 26.3125 -18.148438 21.28125 -11.078125 C 16.257812 -4.015625 11.351562 3.171875 6.5625 10.484375 C 6.15625 11.191406 5.703125 11.769531 5.203125 12.21875 C 4.703125 12.664062 4.039062 12.8125 3.21875 12.65625 C 2.84375 12.550781 2.550781 12.320312 2.34375 11.96875 C 2.144531 11.613281 2.109375 11.269531 2.234375 10.9375 C 2.671875 9.9375 3.148438 8.988281 3.671875 8.09375 C 5.148438 5.53125 6.617188 2.96875 8.078125 0.40625 C 10.992188 -4.675781 13.890625 -9.78125 16.765625 -14.90625 C 21.210938 -22.769531 25.1875 -31.050781 28.6875 -39.75 C 30.050781 -43.082031 31.160156 -46.59375 32.015625 -50.28125 C 32.492188 -52.226562 32.695312 -54.269531 32.625 -56.40625 C 32.40625 -59.8125 31.273438 -62.25 29.234375 -63.71875 C 27.191406 -65.1875 24.507812 -65.878906 21.1875 -65.796875 C 17.863281 -65.722656 14.175781 -65.046875 10.125 -63.765625 C 6.070312 -62.484375 1.921875 -60.785156 -2.328125 -58.671875 C -6.578125 -56.566406 -10.675781 -54.238281 -14.625 -51.6875 C -18.582031 -49.144531 -22.097656 -46.5625 -25.171875 -43.9375 C -28.253906 -41.320312 -30.65625 -38.867188 -32.375 -36.578125 C -34.175781 -34.046875 -35.710938 -31.257812 -36.984375 -28.21875 C -37.628906 -26.769531 -38 -25.191406 -38.09375 -23.484375 C -38.132812 -23.148438 -38.304688 -22.898438 -38.609375 -22.734375 C -38.910156 -22.566406 -39.242188 -22.515625 -39.609375 -22.578125 C -40.203125 -22.765625 -40.578125 -23.226562 -40.734375 -23.96875 C -40.828125 -24.945312 -40.75 -25.84375 -40.5 -26.65625 C -39.945312 -28.695312 -39.207031 -30.628906 -38.28125 -32.453125 C -36.570312 -35.640625 -33.976562 -38.894531 -30.5 -42.21875 C -27.019531 -45.550781 -22.96875 -48.738281 -18.34375 -51.78125 C -13.726562 -54.820312 -8.90625 -57.535156 -3.875 -59.921875 C 1.15625 -62.316406 6.070312 -64.175781 10.875 -65.5 C 15.6875 -66.820312 20.019531 -67.414062 23.875 -67.28125 C 27.738281 -67.144531 30.78125 -66.085938 33 -64.109375 C 35.226562 -62.128906 36.3125 -59.003906 36.25 -54.734375 C 36.132812 -51.984375 35.703125 -49.363281 34.953125 -46.875 C 33.878906 -43.238281 32.632812 -39.71875 31.21875 -36.3125 C 29.8125 -32.914062 28.316406 -29.585938 26.734375 -26.328125 C 26.242188 -25.316406 26.132812 -24.820312 26.40625 -24.84375 C 26.6875 -24.875 27.109375 -25.257812 27.671875 -26 C 29.679688 -28.664062 31.6875 -31.296875 33.6875 -33.890625 C 35.0625 -35.628906 36.457031 -37.335938 37.875 -39.015625 C 38.0625 -39.242188 38.242188 -39.46875 38.421875 -39.6875 C 39.234375 -40.6875 40.210938 -41.351562 41.359375 -41.6875 C 42.222656 -41.875 42.945312 -41.679688 43.53125 -41.109375 C 44.125 -40.535156 44.328125 -39.675781 44.140625 -38.53125 C 44.109375 -38.40625 44.078125 -38.285156 44.046875 -38.171875 C 43.742188 -36.691406 43.390625 -35.25 42.984375 -33.84375 C 41.898438 -30.414062 40.785156 -27.015625 39.640625 -23.640625 C 39.085938 -21.898438 38.53125 -20.140625 37.96875 -18.359375 C 37.851562 -18.097656 37.6875 -17.628906 37.46875 -16.953125 C 37.25 -16.367188 37.035156 -15.789062 36.828125 -15.21875 C 36.628906 -14.644531 36.46875 -14.203125 36.34375 -13.890625 C 36.5 -14.015625 37.878906 -15.5625 40.484375 -18.53125 C 44.003906 -22.582031 48.175781 -27.320312 53 -32.75 C 57.832031 -38.1875 61.625 -42.34375 64.375 -45.21875 C 69.457031 -50.320312 74.8125 -54.972656 80.4375 -59.171875 C 86.0625 -63.367188 91.894531 -67.160156 97.9375 -70.546875 C 99.425781 -71.328125 100.953125 -72.03125 102.515625 -72.65625 C 102.859375 -72.769531 103.191406 -72.90625 103.515625 -73.0625 C 104.992188 -73.644531 106.570312 -73.863281 108.25 -73.71875 C 111.445312 -73.414062 112.914062 -71.390625 112.65625 -67.640625 C 112.46875 -65.304688 111.953125 -63.117188 111.109375 -61.078125 Z M 39.46875 -34.546875 C 39.550781 -34.484375 39.609375 -34.4375 39.640625 -34.40625 C 39.640625 -34.40625 39.640625 -34.382812 39.640625 -34.34375 C 39.671875 -34.34375 39.6875 -34.363281 39.6875 -34.40625 C 39.625 -34.4375 39.550781 -34.484375 39.46875 -34.546875 Z M 39.46875 -34.546875 "/></g></g></g><path stroke-linecap="butt" transform="matrix(1.5, 0, 0, 1.5, 71.457101, 131.740743)" fill="none" stroke-linejoin="miter" d="M -0.0000462384 0.000962767 L 35.507769 0.000962767 " stroke="#000000" stroke-width="1" stroke-opacity="1" stroke-miterlimit="4"/><path stroke-linecap="butt" transform="matrix(1.507495, -0.000000000000000489, 0.000000000000000487, 1.5, 234.495179, 131.740743)" fill="none" stroke-linejoin="miter" d="M 0.000607 0.000962767 L 43.787043 0.000962767 " stroke="#000000" stroke-width="1" stroke-opacity="1" stroke-miterlimit="4"/><path stroke-linecap="butt" transform="matrix(0.000000000000000092, 1.503671, -1.5, 0.000000000000000092, 299.423013, 130.992179)" fill="none" stroke-linejoin="miter" d="M 0.00000592006 0.000758559 L 63.846359 0.000758559 " stroke="#000000" stroke-width="1" stroke-opacity="1" stroke-miterlimit="4"/><path stroke-linecap="butt" transform="matrix(1.50023, 0, 0, 1.5, 71.457101, 226.009233)" fill="none" stroke-linejoin="miter" d="M -0.0000462313 -0.000947106 L 152.479137 -0.000947106 " stroke="#000000" stroke-width="1" stroke-opacity="1" stroke-miterlimit="4"/><path stroke-linecap="butt" transform="matrix(0.000000000000000092, 1.503729, -1.5, 0.000000000000000092, 72.205656, 132.492178)" fill="none" stroke-linejoin="miter" d="M 0.00000598533 -0.000916994 L 62.846357 -0.000916994 " stroke="#000000" stroke-width="1" stroke-opacity="1" stroke-miterlimit="4"/><g fill="#000000" fill-opacity="1"><g transform="translate(154.662738, 227.625043)"><g><path d="M 15.9375 -11.1875 C 16.28125 -11 16.304688 -10.519531 16.015625 -9.75 C 15.585938 -9.195312 15.132812 -8.675781 14.65625 -8.1875 C 14.175781 -7.707031 13.648438 -7.28125 13.078125 -6.90625 C 13.035156 -6.90625 13.015625 -6.890625 13.015625 -6.859375 C 12.628906 -6.585938 12.222656 -6.359375 11.796875 -6.171875 C 8.296875 -4.910156 6.507812 -5.648438 6.4375 -8.390625 C 5.019531 -7.160156 4.066406 -6.40625 3.578125 -6.125 C 2.421875 -5.4375 1.171875 -5.128906 -0.171875 -5.203125 C -1.171875 -5.265625 -1.847656 -5.566406 -2.203125 -6.109375 C -2.566406 -6.660156 -2.535156 -7.40625 -2.109375 -8.34375 C -1.460938 -9.820312 -0.546875 -11.144531 0.640625 -12.3125 C 2.023438 -13.59375 3.570312 -14.625 5.28125 -15.40625 C 6.1875 -15.851562 7.132812 -16.03125 8.125 -15.9375 C 9.125 -15.875 9.726562 -15.304688 9.9375 -14.234375 C 10.019531 -13.910156 9.9375 -13.625 9.6875 -13.375 C 9.363281 -13.082031 8.988281 -13.019531 8.5625 -13.1875 C 8.539062 -13.1875 8.503906 -13.191406 8.453125 -13.203125 C 8.398438 -13.222656 8.359375 -13.242188 8.328125 -13.265625 C 7.898438 -13.859375 7.46875 -14.101562 7.03125 -14 C 6.601562 -13.90625 6.148438 -13.710938 5.671875 -13.421875 C 3.410156 -12.109375 1.734375 -10.269531 0.640625 -7.90625 C 0.578125 -7.800781 0.535156 -7.6875 0.515625 -7.5625 C 0.503906 -7.445312 0.546875 -7.347656 0.640625 -7.265625 C 0.898438 -7.179688 1.191406 -7.203125 1.515625 -7.328125 C 1.835938 -7.453125 2.160156 -7.632812 2.484375 -7.875 C 2.804688 -8.113281 3.078125 -8.316406 3.296875 -8.484375 C 3.328125 -8.523438 3.34375 -8.546875 3.34375 -8.546875 C 4.40625 -9.441406 5.453125 -10.359375 6.484375 -11.296875 C 6.929688 -11.773438 7.492188 -12.046875 8.171875 -12.109375 C 9.140625 -12.109375 9.539062 -11.675781 9.375 -10.8125 C 9.289062 -10.488281 9.195312 -10.164062 9.09375 -9.84375 C 8.71875 -8.445312 8.703125 -7.628906 9.046875 -7.390625 C 9.398438 -7.148438 9.9375 -7.148438 10.65625 -7.390625 C 11.382812 -7.628906 12.113281 -8.085938 12.84375 -8.765625 C 13.570312 -9.453125 14.179688 -10.078125 14.671875 -10.640625 C 15.171875 -11.203125 15.59375 -11.382812 15.9375 -11.1875 Z M 15.9375 -11.1875 "/></g></g></g><g fill="#000000" fill-opacity="1"><g transform="translate(169.22682, 227.625043)"><g><path d="M 17.40625 -10.96875 C 17.632812 -10.675781 17.335938 -10.140625 16.515625 -9.359375 C 15.703125 -8.585938 14.832031 -7.9375 13.90625 -7.40625 C 12.988281 -6.875 11.921875 -6.347656 10.703125 -5.828125 C 9.898438 -5.472656 9.039062 -5.351562 8.125 -5.46875 C 7.21875 -5.582031 6.765625 -6.128906 6.765625 -7.109375 C 6.765625 -8.097656 6.992188 -9.078125 7.453125 -10.046875 C 7.898438 -11.035156 7.992188 -11.546875 7.734375 -11.578125 C 7.484375 -11.609375 6.957031 -11.367188 6.15625 -10.859375 C 4.0625 -9.484375 2.113281 -7.90625 0.3125 -6.125 C -0.175781 -5.539062 -0.789062 -5.21875 -1.53125 -5.15625 C -1.914062 -5.15625 -2.210938 -5.273438 -2.421875 -5.515625 C -2.640625 -5.765625 -2.664062 -6.03125 -2.5 -6.3125 C -1.21875 -8.695312 0.0820312 -11.050781 1.40625 -13.375 C 1.695312 -13.863281 2.132812 -14.164062 2.71875 -14.28125 C 2.96875 -14.320312 3.195312 -14.242188 3.40625 -14.046875 C 3.625 -13.847656 3.734375 -13.625 3.734375 -13.375 C 3.703125 -13.144531 3.609375 -12.867188 3.453125 -12.546875 C 3.378906 -12.359375 3.304688 -12.175781 3.234375 -12 C 3.171875 -11.820312 3.148438 -11.671875 3.171875 -11.546875 C 3.191406 -11.429688 3.285156 -11.398438 3.453125 -11.453125 C 3.671875 -11.566406 3.890625 -11.691406 4.109375 -11.828125 C 4.660156 -12.148438 5.195312 -12.457031 5.71875 -12.75 C 6.164062 -13.007812 6.640625 -13.238281 7.140625 -13.4375 C 7.640625 -13.644531 8.160156 -13.785156 8.703125 -13.859375 C 9.578125 -13.921875 10.195312 -13.722656 10.5625 -13.265625 C 10.9375 -12.816406 10.984375 -12.1875 10.703125 -11.375 C 10.410156 -10.644531 10.101562 -9.921875 9.78125 -9.203125 C 9.382812 -8.535156 9.316406 -8.023438 9.578125 -7.671875 C 9.835938 -7.316406 11.0625 -7.71875 13.25 -8.875 L 14.890625 -9.84375 C 16.453125 -10.84375 17.289062 -11.21875 17.40625 -10.96875 Z M 17.40625 -10.96875 "/></g></g></g><g fill="#000000" fill-opacity="1"><g transform="translate(185.328587, 227.625043)"><g><path d="M 8.734375 -9.25 C 7.953125 -8.320312 7.023438 -7.46875 5.953125 -6.6875 C 4.878906 -5.914062 3.671875 -5.394531 2.328125 -5.125 C 0.984375 -4.851562 -0.0625 -4.953125 -0.8125 -5.421875 C -1.5625 -5.890625 -1.707031 -6.929688 -1.25 -8.546875 C -0.664062 -10.210938 0.140625 -11.800781 1.171875 -13.3125 C 1.398438 -13.632812 1.734375 -13.863281 2.171875 -14 C 2.492188 -14.070312 2.773438 -14.015625 3.015625 -13.828125 C 3.265625 -13.648438 3.359375 -13.421875 3.296875 -13.140625 C 3.078125 -12.609375 2.832031 -12.078125 2.5625 -11.546875 C 2.300781 -11.023438 2.128906 -10.6875 2.046875 -10.53125 C 1.535156 -9.59375 1.175781 -8.609375 0.96875 -7.578125 C 0.96875 -6.992188 1.75 -6.957031 3.3125 -7.46875 C 4.882812 -7.976562 6.410156 -8.914062 7.890625 -10.28125 C 9.367188 -11.65625 10.070312 -12.0625 10 -11.5 C 9.9375 -10.9375 9.515625 -10.1875 8.734375 -9.25 Z M 4.90625 -16.609375 C 4.832031 -16.554688 4.679688 -16.488281 4.453125 -16.40625 C 4.222656 -16.320312 3.976562 -16.257812 3.71875 -16.21875 C 3.46875 -16.1875 3.269531 -16.226562 3.125 -16.34375 C 2.976562 -16.46875 2.96875 -16.703125 3.09375 -17.046875 C 3.332031 -17.660156 3.578125 -18.195312 3.828125 -18.65625 C 4.085938 -19.125 4.421875 -19.632812 4.828125 -20.1875 C 5.097656 -20.4375 5.382812 -20.570312 5.6875 -20.59375 C 6 -20.613281 6.253906 -20.53125 6.453125 -20.34375 C 6.660156 -20.164062 6.722656 -19.914062 6.640625 -19.59375 C 6.316406 -18.4375 5.738281 -17.441406 4.90625 -16.609375 Z M 4.90625 -16.609375 "/></g></g></g><g fill="#000000" fill-opacity="1"><g transform="translate(193.895691, 227.625043)"><g><path d="M 22.96875 -11.015625 C 23.476562 -11.328125 23.878906 -11.40625 24.171875 -11.25 C 24.460938 -11.09375 24.351562 -10.640625 23.84375 -9.890625 C 23.195312 -9.023438 22.039062 -8.097656 20.375 -7.109375 C 18.71875 -6.128906 17.25 -5.703125 15.96875 -5.828125 C 14.695312 -5.953125 14.328125 -6.894531 14.859375 -8.65625 C 15.398438 -10.414062 15.691406 -11.398438 15.734375 -11.609375 C 15.773438 -11.828125 15.734375 -11.945312 15.609375 -11.96875 C 15.484375 -12 15.195312 -11.851562 14.75 -11.53125 C 13.425781 -10.625 12.132812 -9.671875 10.875 -8.671875 C 10.332031 -8.265625 9.796875 -7.835938 9.265625 -7.390625 C 8.953125 -7.085938 8.617188 -6.789062 8.265625 -6.5 C 8.265625 -6.5 8.25 -6.484375 8.21875 -6.453125 C 7.832031 -6.078125 7.363281 -5.820312 6.8125 -5.6875 C 6.5625 -5.613281 6.296875 -5.585938 6.015625 -5.609375 C 5.742188 -5.628906 5.507812 -5.738281 5.3125 -5.9375 C 5.09375 -6.15625 5.007812 -6.382812 5.0625 -6.625 C 5.125 -6.863281 5.3125 -7.222656 5.625 -7.703125 C 5.9375 -8.191406 6.273438 -8.722656 6.640625 -9.296875 C 7.015625 -9.878906 7.222656 -10.234375 7.265625 -10.359375 C 7.316406 -10.492188 7.296875 -10.628906 7.203125 -10.765625 C 7.097656 -10.898438 6.984375 -10.941406 6.859375 -10.890625 C 6.742188 -10.835938 6.28125 -10.519531 5.46875 -9.9375 C 4.664062 -9.363281 3.566406 -8.554688 2.171875 -7.515625 C 1.523438 -7.035156 0.894531 -6.535156 0.28125 -6.015625 C 0.125 -5.859375 -0.046875 -5.710938 -0.234375 -5.578125 C -0.691406 -5.203125 -1.191406 -5 -1.734375 -4.96875 C -2.128906 -4.9375 -2.421875 -5.019531 -2.609375 -5.21875 C -2.804688 -5.425781 -2.835938 -5.707031 -2.703125 -6.0625 C -2.617188 -6.320312 -2.507812 -6.566406 -2.375 -6.796875 C -2.300781 -6.890625 -2.25 -6.988281 -2.21875 -7.09375 C -1.0625 -9.4375 0.078125 -11.789062 1.203125 -14.15625 C 1.234375 -14.207031 1.265625 -14.285156 1.296875 -14.390625 C 1.429688 -14.640625 1.5625 -14.882812 1.6875 -15.125 C 2.039062 -15.5 2.457031 -15.617188 2.9375 -15.484375 C 3.5 -15.328125 3.710938 -15.007812 3.578125 -14.53125 C 3.316406 -13.789062 3.0625 -13.0625 2.8125 -12.34375 C 2.675781 -12.019531 2.546875 -11.695312 2.421875 -11.375 C 2.203125 -10.8125 2.128906 -10.445312 2.203125 -10.28125 C 2.285156 -10.125 2.648438 -10.234375 3.296875 -10.609375 C 3.734375 -10.898438 4.164062 -11.191406 4.59375 -11.484375 C 5.101562 -11.835938 5.601562 -12.160156 6.09375 -12.453125 C 6.832031 -12.910156 7.59375 -13.300781 8.375 -13.625 C 8.75 -13.78125 9.140625 -13.898438 9.546875 -13.984375 C 9.953125 -14.066406 10.328125 -13.976562 10.671875 -13.71875 C 10.941406 -13.488281 11.054688 -13.234375 11.015625 -12.953125 C 10.984375 -12.679688 10.90625 -12.421875 10.78125 -12.171875 C 10.582031 -11.691406 10.5 -11.382812 10.53125 -11.25 C 10.570312 -11.113281 10.6875 -11.085938 10.875 -11.171875 C 11.0625 -11.253906 11.394531 -11.441406 11.875 -11.734375 C 12.363281 -12.023438 12.890625 -12.347656 13.453125 -12.703125 C 14.148438 -13.148438 14.890625 -13.582031 15.671875 -14 C 16.316406 -14.425781 17.003906 -14.679688 17.734375 -14.765625 C 18.742188 -14.835938 19.15625 -14.429688 18.96875 -13.546875 C 18.789062 -12.660156 18.4375 -11.601562 17.90625 -10.375 C 17.375 -9.15625 17.316406 -8.40625 17.734375 -8.125 C 18.160156 -7.851562 19.085938 -8.234375 20.515625 -9.265625 C 21.953125 -10.296875 22.769531 -10.878906 22.96875 -11.015625 Z M 22.96875 -11.015625 "/></g></g></g><g fill="#000000" fill-opacity="1"><g transform="translate(217.136706, 227.625043)"><g><path d="M 15.9375 -11.1875 C 16.28125 -11 16.304688 -10.519531 16.015625 -9.75 C 15.585938 -9.195312 15.132812 -8.675781 14.65625 -8.1875 C 14.175781 -7.707031 13.648438 -7.28125 13.078125 -6.90625 C 13.035156 -6.90625 13.015625 -6.890625 13.015625 -6.859375 C 12.628906 -6.585938 12.222656 -6.359375 11.796875 -6.171875 C 8.296875 -4.910156 6.507812 -5.648438 6.4375 -8.390625 C 5.019531 -7.160156 4.066406 -6.40625 3.578125 -6.125 C 2.421875 -5.4375 1.171875 -5.128906 -0.171875 -5.203125 C -1.171875 -5.265625 -1.847656 -5.566406 -2.203125 -6.109375 C -2.566406 -6.660156 -2.535156 -7.40625 -2.109375 -8.34375 C -1.460938 -9.820312 -0.546875 -11.144531 0.640625 -12.3125 C 2.023438 -13.59375 3.570312 -14.625 5.28125 -15.40625 C 6.1875 -15.851562 7.132812 -16.03125 8.125 -15.9375 C 9.125 -15.875 9.726562 -15.304688 9.9375 -14.234375 C 10.019531 -13.910156 9.9375 -13.625 9.6875 -13.375 C 9.363281 -13.082031 8.988281 -13.019531 8.5625 -13.1875 C 8.539062 -13.1875 8.503906 -13.191406 8.453125 -13.203125 C 8.398438 -13.222656 8.359375 -13.242188 8.328125 -13.265625 C 7.898438 -13.859375 7.46875 -14.101562 7.03125 -14 C 6.601562 -13.90625 6.148438 -13.710938 5.671875 -13.421875 C 3.410156 -12.109375 1.734375 -10.269531 0.640625 -7.90625 C 0.578125 -7.800781 0.535156 -7.6875 0.515625 -7.5625 C 0.503906 -7.445312 0.546875 -7.347656 0.640625 -7.265625 C 0.898438 -7.179688 1.191406 -7.203125 1.515625 -7.328125 C 1.835938 -7.453125 2.160156 -7.632812 2.484375 -7.875 C 2.804688 -8.113281 3.078125 -8.316406 3.296875 -8.484375 C 3.328125 -8.523438 3.34375 -8.546875 3.34375 -8.546875 C 4.40625 -9.441406 5.453125 -10.359375 6.484375 -11.296875 C 6.929688 -11.773438 7.492188 -12.046875 8.171875 -12.109375 C 9.140625 -12.109375 9.539062 -11.675781 9.375 -10.8125 C 9.289062 -10.488281 9.195312 -10.164062 9.09375 -9.84375 C 8.71875 -8.445312 8.703125 -7.628906 9.046875 -7.390625 C 9.398438 -7.148438 9.9375 -7.148438 10.65625 -7.390625 C 11.382812 -7.628906 12.113281 -8.085938 12.84375 -8.765625 C 13.570312 -9.453125 14.179688 -10.078125 14.671875 -10.640625 C 15.171875 -11.203125 15.59375 -11.382812 15.9375 -11.1875 Z M 15.9375 -11.1875 "/></g></g></g><g fill="#000000" fill-opacity="1"><g transform="translate(231.700788, 227.625043)"><g><path d="M 10.640625 -11.140625 C 8.316406 -10.273438 6.644531 -9.570312 5.625 -9.03125 C 4.875 -8.664062 4.441406 -8.359375 4.328125 -8.109375 C 4.222656 -7.867188 4.3125 -7.429688 4.59375 -6.796875 C 4.59375 -6.765625 4.613281 -6.71875 4.65625 -6.65625 C 4.976562 -5.882812 5.171875 -5.078125 5.234375 -4.234375 C 5.335938 -2.554688 3.90625 -1.378906 0.9375 -0.703125 C -2.03125 -0.0234375 -4.015625 0 -5.015625 -0.625 C -6.023438 -1.257812 -6.332031 -2.0625 -5.9375 -3.03125 C -5.550781 -4 -4.546875 -4.976562 -2.921875 -5.96875 C -1.296875 -6.96875 -0.207031 -7.6875 0.34375 -8.125 C 0.894531 -8.570312 1.054688 -9.066406 0.828125 -9.609375 C 0.753906 -9.796875 0.675781 -9.984375 0.59375 -10.171875 C 0.40625 -10.628906 0.207031 -11.097656 0 -11.578125 C -0.382812 -12.453125 -0.550781 -13.316406 -0.5 -14.171875 C -0.445312 -15.023438 -0.132812 -15.738281 0.4375 -16.3125 C 1.019531 -16.894531 1.921875 -17.207031 3.140625 -17.25 C 3.828125 -17.28125 4.441406 -17.1875 4.984375 -16.96875 C 5.523438 -16.757812 5.957031 -16.367188 6.28125 -15.796875 C 6.550781 -15.398438 6.472656 -15.039062 6.046875 -14.71875 C 5.765625 -14.5 5.460938 -14.472656 5.140625 -14.640625 C 4.929688 -14.722656 4.734375 -14.84375 4.546875 -15 C 4.546875 -15.050781 4.546875 -15.078125 4.546875 -15.078125 C 4.460938 -15.128906 4.382812 -15.1875 4.3125 -15.25 C 4.21875 -15.382812 4.117188 -15.488281 4.015625 -15.5625 C 3.640625 -15.832031 3.253906 -15.910156 2.859375 -15.796875 C 2.472656 -15.691406 2.1875 -15.398438 2 -14.921875 C 1.863281 -14.535156 1.796875 -14.144531 1.796875 -13.75 C 1.828125 -13.269531 1.9375 -12.800781 2.125 -12.34375 C 2.257812 -12.070312 2.378906 -11.816406 2.484375 -11.578125 C 2.734375 -10.929688 2.9375 -10.488281 3.09375 -10.25 C 3.257812 -10.007812 3.453125 -9.90625 3.671875 -9.9375 C 3.898438 -9.976562 5.976562 -10.722656 9.90625 -12.171875 C 10.757812 -12.453125 11.003906 -12.109375 10.640625 -11.140625 Z M 1.125 -2.75 C 2.144531 -3.101562 2.578125 -3.789062 2.421875 -4.8125 C 2.421875 -4.882812 2.40625 -4.960938 2.375 -5.046875 C 2.3125 -5.609375 2.191406 -6.039062 2.015625 -6.34375 C 1.847656 -6.644531 1.453125 -6.632812 0.828125 -6.3125 C -0.691406 -5.445312 -2.097656 -4.4375 -3.390625 -3.28125 C -3.472656 -3.175781 -3.550781 -3.078125 -3.625 -2.984375 C -3.625 -2.984375 -3.640625 -2.960938 -3.671875 -2.921875 C -3.753906 -2.804688 -3.765625 -2.675781 -3.703125 -2.53125 C -3.648438 -2.382812 -3.519531 -2.3125 -3.3125 -2.3125 C -1.8125 -2.070312 -0.332031 -2.21875 1.125 -2.75 Z M 1.125 -2.75 "/></g></g></g><g fill="#000000" fill-opacity="1"><g transform="translate(241.432145, 227.625043)"><g><path d="M 17.84375 -10.234375 C 17.582031 -10.003906 17.300781 -9.796875 17 -9.609375 C 16.0625 -9.015625 15.21875 -8.550781 14.46875 -8.21875 C 13.71875 -7.882812 12.828125 -7.539062 11.796875 -7.1875 C 10.273438 -6.726562 9.296875 -6.828125 8.859375 -7.484375 C 8.429688 -8.148438 8.363281 -9.066406 8.65625 -10.234375 C 9.0625 -11.910156 9.296875 -13.132812 9.359375 -13.90625 C 9.429688 -14.6875 9.175781 -14.953125 8.59375 -14.703125 C 8.019531 -14.460938 6.972656 -13.664062 5.453125 -12.3125 C 3.328125 -10.476562 1.507812 -8.378906 0 -6.015625 C -0.1875 -5.691406 -0.421875 -5.425781 -0.703125 -5.21875 C -0.984375 -5.019531 -1.328125 -4.921875 -1.734375 -4.921875 C -2.128906 -4.921875 -2.414062 -5.019531 -2.59375 -5.21875 C -2.769531 -5.425781 -2.773438 -5.707031 -2.609375 -6.0625 C -1.742188 -7.96875 -0.859375 -9.859375 0.046875 -11.734375 C 1.597656 -14.984375 3.128906 -18.222656 4.640625 -21.453125 C 5.765625 -23.867188 6.875 -26.285156 7.96875 -28.703125 C 8.644531 -30.117188 9.304688 -31.535156 9.953125 -32.953125 C 10.015625 -33.078125 10.082031 -33.203125 10.15625 -33.328125 C 10.207031 -33.492188 10.273438 -33.65625 10.359375 -33.8125 C 10.441406 -33.976562 10.535156 -34.15625 10.640625 -34.34375 C 10.722656 -34.5 10.882812 -34.628906 11.125 -34.734375 C 11.363281 -34.835938 11.601562 -34.90625 11.84375 -34.9375 C 12.09375 -34.96875 12.285156 -34.953125 12.421875 -34.890625 C 12.609375 -34.753906 12.710938 -34.613281 12.734375 -34.46875 C 12.753906 -34.320312 12.726562 -34.171875 12.65625 -34.015625 C 12.625 -33.984375 12.609375 -33.929688 12.609375 -33.859375 C 12.316406 -32.992188 12.007812 -32.160156 11.6875 -31.359375 C 9.832031 -26.867188 7.804688 -22.453125 5.609375 -18.109375 C 5.441406 -17.816406 5.25 -17.460938 5.03125 -17.046875 C 4.707031 -16.460938 4.40625 -15.890625 4.125 -15.328125 C 3.851562 -14.765625 3.765625 -14.382812 3.859375 -14.1875 C 3.953125 -14 4.382812 -14.148438 5.15625 -14.640625 C 5.394531 -14.796875 5.609375 -14.957031 5.796875 -15.125 C 6.410156 -15.53125 7.019531 -15.914062 7.625 -16.28125 C 8.15625 -16.632812 8.738281 -16.828125 9.375 -16.859375 C 10.914062 -16.953125 11.78125 -16.253906 11.96875 -14.765625 C 12.039062 -14.160156 12.019531 -13.566406 11.90625 -12.984375 C 11.789062 -12.398438 11.648438 -11.820312 11.484375 -11.25 C 11.460938 -11.09375 11.4375 -10.929688 11.40625 -10.765625 C 11.144531 -9.765625 11.210938 -9.191406 11.609375 -9.046875 C 12.015625 -8.898438 12.578125 -8.976562 13.296875 -9.28125 C 14.023438 -9.59375 14.765625 -9.972656 15.515625 -10.421875 C 16.023438 -10.679688 16.472656 -10.90625 16.859375 -11.09375 C 17.253906 -11.28125 17.546875 -11.363281 17.734375 -11.34375 C 18.085938 -11.28125 18.25 -11.132812 18.21875 -10.90625 C 18.1875 -10.675781 18.0625 -10.453125 17.84375 -10.234375 Z M 17.84375 -10.234375 "/></g></g></g><g fill="#000000" fill-opacity="1"><g transform="translate(258.19292, 227.625043)"><g><path d="M 15.9375 -11.1875 C 16.28125 -11 16.304688 -10.519531 16.015625 -9.75 C 15.585938 -9.195312 15.132812 -8.675781 14.65625 -8.1875 C 14.175781 -7.707031 13.648438 -7.28125 13.078125 -6.90625 C 13.035156 -6.90625 13.015625 -6.890625 13.015625 -6.859375 C 12.628906 -6.585938 12.222656 -6.359375 11.796875 -6.171875 C 8.296875 -4.910156 6.507812 -5.648438 6.4375 -8.390625 C 5.019531 -7.160156 4.066406 -6.40625 3.578125 -6.125 C 2.421875 -5.4375 1.171875 -5.128906 -0.171875 -5.203125 C -1.171875 -5.265625 -1.847656 -5.566406 -2.203125 -6.109375 C -2.566406 -6.660156 -2.535156 -7.40625 -2.109375 -8.34375 C -1.460938 -9.820312 -0.546875 -11.144531 0.640625 -12.3125 C 2.023438 -13.59375 3.570312 -14.625 5.28125 -15.40625 C 6.1875 -15.851562 7.132812 -16.03125 8.125 -15.9375 C 9.125 -15.875 9.726562 -15.304688 9.9375 -14.234375 C 10.019531 -13.910156 9.9375 -13.625 9.6875 -13.375 C 9.363281 -13.082031 8.988281 -13.019531 8.5625 -13.1875 C 8.539062 -13.1875 8.503906 -13.191406 8.453125 -13.203125 C 8.398438 -13.222656 8.359375 -13.242188 8.328125 -13.265625 C 7.898438 -13.859375 7.46875 -14.101562 7.03125 -14 C 6.601562 -13.90625 6.148438 -13.710938 5.671875 -13.421875 C 3.410156 -12.109375 1.734375 -10.269531 0.640625 -7.90625 C 0.578125 -7.800781 0.535156 -7.6875 0.515625 -7.5625 C 0.503906 -7.445312 0.546875 -7.347656 0.640625 -7.265625 C 0.898438 -7.179688 1.191406 -7.203125 1.515625 -7.328125 C 1.835938 -7.453125 2.160156 -7.632812 2.484375 -7.875 C 2.804688 -8.113281 3.078125 -8.316406 3.296875 -8.484375 C 3.328125 -8.523438 3.34375 -8.546875 3.34375 -8.546875 C 4.40625 -9.441406 5.453125 -10.359375 6.484375 -11.296875 C 6.929688 -11.773438 7.492188 -12.046875 8.171875 -12.109375 C 9.140625 -12.109375 9.539062 -11.675781 9.375 -10.8125 C 9.289062 -10.488281 9.195312 -10.164062 9.09375 -9.84375 C 8.71875 -8.445312 8.703125 -7.628906 9.046875 -7.390625 C 9.398438 -7.148438 9.9375 -7.148438 10.65625 -7.390625 C 11.382812 -7.628906 12.113281 -8.085938 12.84375 -8.765625 C 13.570312 -9.453125 14.179688 -10.078125 14.671875 -10.640625 C 15.171875 -11.203125 15.59375 -11.382812 15.9375 -11.1875 Z M 15.9375 -11.1875 "/></g></g></g><g fill="#000000" fill-opacity="1"><g transform="translate(272.757002, 227.625043)"><g><path d="M 0.546875 -3.890625 C -0.835938 -3.890625 -1.53125 -4.613281 -1.53125 -6.0625 C -1.53125 -7.832031 -0.382812 -10.960938 1.90625 -15.453125 C 2 -15.640625 2.160156 -15.734375 2.390625 -15.734375 C 3.316406 -15.734375 3.78125 -15.367188 3.78125 -14.640625 C 3.78125 -14.367188 3.695312 -14.046875 3.53125 -13.671875 C 3.476562 -13.566406 2.710938 -11.628906 1.234375 -7.859375 C 0.992188 -7.242188 0.875 -6.789062 0.875 -6.5 C 0.875 -6.175781 1.019531 -6.015625 1.3125 -6.015625 C 2.382812 -6.015625 5.191406 -8.675781 9.734375 -14 C 10.316406 -14.71875 10.894531 -15.078125 11.46875 -15.078125 C 12.300781 -15.078125 12.71875 -14.769531 12.71875 -14.15625 C 12.71875 -13.914062 12.460938 -13.023438 11.953125 -11.484375 C 11.253906 -9.390625 10.90625 -8.179688 10.90625 -7.859375 C 10.90625 -7.378906 11.0625 -7.140625 11.375 -7.140625 C 12.1875 -7.140625 14.539062 -8.578125 18.4375 -11.453125 C 18.65625 -11.640625 18.84375 -11.734375 19 -11.734375 C 19.375 -11.734375 19.5625 -11.425781 19.5625 -10.8125 C 19.5625 -10.644531 19.507812 -10.515625 19.40625 -10.421875 C 17.332031 -8.640625 15.570312 -7.289062 14.125 -6.375 C 12.8125 -5.519531 11.640625 -5.09375 10.609375 -5.09375 L 10.3125 -5.09375 C 8.800781 -5.414062 8.046875 -6.597656 8.046875 -8.640625 C 6.429688 -7.210938 5.09375 -6.0625 4.03125 -5.1875 C 2.96875 -4.320312 1.804688 -3.890625 0.546875 -3.890625 Z M 0.546875 -3.890625 "/></g></g></g><g fill="#000000" fill-opacity="1"><g transform="translate(290.813821, 227.625043)"><g><path d="M 17.40625 -10.96875 C 17.632812 -10.675781 17.335938 -10.140625 16.515625 -9.359375 C 15.703125 -8.585938 14.832031 -7.9375 13.90625 -7.40625 C 12.988281 -6.875 11.921875 -6.347656 10.703125 -5.828125 C 9.898438 -5.472656 9.039062 -5.351562 8.125 -5.46875 C 7.21875 -5.582031 6.765625 -6.128906 6.765625 -7.109375 C 6.765625 -8.097656 6.992188 -9.078125 7.453125 -10.046875 C 7.898438 -11.035156 7.992188 -11.546875 7.734375 -11.578125 C 7.484375 -11.609375 6.957031 -11.367188 6.15625 -10.859375 C 4.0625 -9.484375 2.113281 -7.90625 0.3125 -6.125 C -0.175781 -5.539062 -0.789062 -5.21875 -1.53125 -5.15625 C -1.914062 -5.15625 -2.210938 -5.273438 -2.421875 -5.515625 C -2.640625 -5.765625 -2.664062 -6.03125 -2.5 -6.3125 C -1.21875 -8.695312 0.0820312 -11.050781 1.40625 -13.375 C 1.695312 -13.863281 2.132812 -14.164062 2.71875 -14.28125 C 2.96875 -14.320312 3.195312 -14.242188 3.40625 -14.046875 C 3.625 -13.847656 3.734375 -13.625 3.734375 -13.375 C 3.703125 -13.144531 3.609375 -12.867188 3.453125 -12.546875 C 3.378906 -12.359375 3.304688 -12.175781 3.234375 -12 C 3.171875 -11.820312 3.148438 -11.671875 3.171875 -11.546875 C 3.191406 -11.429688 3.285156 -11.398438 3.453125 -11.453125 C 3.671875 -11.566406 3.890625 -11.691406 4.109375 -11.828125 C 4.660156 -12.148438 5.195312 -12.457031 5.71875 -12.75 C 6.164062 -13.007812 6.640625 -13.238281 7.140625 -13.4375 C 7.640625 -13.644531 8.160156 -13.785156 8.703125 -13.859375 C 9.578125 -13.921875 10.195312 -13.722656 10.5625 -13.265625 C 10.9375 -12.816406 10.984375 -12.1875 10.703125 -11.375 C 10.410156 -10.644531 10.101562 -9.921875 9.78125 -9.203125 C 9.382812 -8.535156 9.316406 -8.023438 9.578125 -7.671875 C 9.835938 -7.316406 11.0625 -7.71875 13.25 -8.875 L 14.890625 -9.84375 C 16.453125 -10.84375 17.289062 -11.21875 17.40625 -10.96875 Z M 17.40625 -10.96875 "/></g></g></g><g fill="#000000" fill-opacity="1"><g transform="translate(228.079166, 210.639917)"><g><path d="M 3.171875 -8.078125 C 3.160156 -8.335938 3.25 -8.507812 3.4375 -8.59375 C 4.53125 -9.132812 5.660156 -9.628906 6.828125 -10.078125 L 7.5 -10.375 L 8.765625 -10.8125 L 12.171875 -12.078125 C 12.421875 -12.179688 12.691406 -12.257812 12.984375 -12.3125 C 13.171875 -12.34375 13.285156 -12.144531 13.328125 -11.71875 C 13.398438 -11.3125 13.328125 -11.039062 13.109375 -10.90625 C 13.054688 -10.875 12.976562 -10.832031 12.875 -10.78125 L 12.171875 -10.53125 C 11.140625 -10.125 10.066406 -9.710938 8.953125 -9.296875 L 7.6875 -8.875 C 6.8125 -8.582031 5.851562 -8.285156 4.8125 -7.984375 C 5.65625 -7.703125 6.425781 -7.410156 7.125 -7.109375 L 8.140625 -6.6875 C 9.023438 -6.28125 9.867188 -5.875 10.671875 -5.46875 L 11.203125 -5.171875 C 11.296875 -5.148438 11.351562 -5.117188 11.375 -5.078125 C 11.519531 -4.953125 11.441406 -4.6875 11.140625 -4.28125 C 10.835938 -3.851562 10.601562 -3.65625 10.4375 -3.6875 C 10.195312 -3.738281 9.96875 -3.800781 9.75 -3.875 L 7.078125 -5.140625 L 6.078125 -5.625 L 5.5625 -5.890625 C 4.664062 -6.335938 3.816406 -6.835938 3.015625 -7.390625 C 2.867188 -7.484375 2.921875 -7.710938 3.171875 -8.078125 Z M 3.171875 -8.078125 "/></g></g></g><g fill="#000000" fill-opacity="1"><g transform="translate(243.17581, 210.639917)"><g/></g></g><g fill="#000000" fill-opacity="1"><g transform="translate(254.245702, 210.639917)"><g><path d="M 12.375 -8.078125 C 12.414062 -7.710938 12.34375 -7.484375 12.15625 -7.390625 C 11.03125 -6.835938 9.890625 -6.335938 8.734375 -5.890625 L 8.0625 -5.625 L 6.796875 -5.140625 L 3.40625 -3.875 C 3.132812 -3.800781 2.867188 -3.738281 2.609375 -3.6875 C 2.390625 -3.65625 2.265625 -3.851562 2.234375 -4.28125 C 2.160156 -4.6875 2.234375 -4.953125 2.453125 -5.078125 C 2.515625 -5.117188 2.59375 -5.148438 2.6875 -5.171875 L 3.40625 -5.46875 C 4.425781 -5.875 5.492188 -6.28125 6.609375 -6.6875 L 7.859375 -7.109375 C 8.742188 -7.410156 9.691406 -7.703125 10.703125 -7.984375 C 9.816406 -8.285156 9.023438 -8.582031 8.328125 -8.875 L 7.328125 -9.296875 C 6.421875 -9.710938 5.582031 -10.125 4.8125 -10.53125 L 4.21875 -10.78125 C 4.144531 -10.832031 4.09375 -10.875 4.0625 -10.90625 C 3.9375 -11.039062 4.015625 -11.3125 4.296875 -11.71875 C 4.597656 -12.144531 4.832031 -12.34375 5 -12.3125 C 5.257812 -12.257812 5.484375 -12.179688 5.671875 -12.078125 L 8.34375 -10.8125 L 9.34375 -10.375 L 9.90625 -10.078125 C 10.800781 -9.628906 11.632812 -9.132812 12.40625 -8.59375 C 12.53125 -8.507812 12.519531 -8.335938 12.375 -8.078125 Z M 12.375 -8.078125 "/></g></g></g></svg>