<svg width="375" height="378" viewBox="0 0 375 378" fill="none" xmlns="http://www.w3.org/2000/svg">
<path d="M378.812 94.0771L422.919 109.042H359.635L351.521 108.159L347.587 105.706L361.011 94.0771H378.812Z" fill="#172B4D"/>
<path d="M373.009 66.601V64.2459C373.009 64.2459 367.846 54.0403 367.108 53.9422C366.371 53.8441 306.381 28.9189 306.381 28.9189L329.246 73.3229L338.294 82.9397L373.009 66.601Z" fill="white" stroke="#36B37E" stroke-width="0.598795" stroke-miterlimit="10"/>
<mask id="mask0_48_989" style="mask-type:alpha" maskUnits="userSpaceOnUse" x="305" y="28" width="69" height="56">
<path d="M373.193 66.8676V64.5125C373.193 64.5125 368.03 54.3069 367.292 54.2088C366.554 54.1107 306.564 29.1855 306.564 29.1855L329.429 73.5895L338.477 83.2063L373.193 66.8676Z" fill="white" stroke="#36B37E" stroke-width="0.598795" stroke-miterlimit="10"/>
</mask>
<g mask="url(#mask0_48_989)">
<path d="M347.98 55.0712L340.457 55.3165L337.015 49.2324L329.787 49.5759L333.18 55.5128L326.001 55.7581L329.344 61.7931L336.573 61.6459L344.047 61.4496L347.685 67.73L355.405 67.6809L359.241 74.1575H367.354L363.371 67.5828L359.487 61.1062L351.668 61.3025L347.98 55.0712Z" fill="#C5E9DA"/>
<path d="M344.391 48.9371L340.85 42.9512L333.573 43.3437L337.015 49.2315L344.391 48.9371Z" fill="#36B37E"/>
<path d="M355.701 54.7769L351.964 48.5947L344.391 48.9382L347.981 55.0713L355.701 54.7769Z" fill="#36B37E"/>
<path d="M359.732 48.2503L355.946 42.1172L348.325 42.5097L351.963 48.5938L359.732 48.2503Z" fill="#36B37E"/>
<path d="M363.617 54.531L355.7 54.7764L359.487 61.1058L367.551 60.9586L375.812 60.7623L371.731 54.2857L367.748 47.9072L359.733 48.2507L363.617 54.531Z" fill="#36B37E"/>
<path d="M322.755 49.8703L329.787 49.5759L326.492 43.6881L333.573 43.3446L330.229 37.5059L323.247 37.9474L316.412 38.389L319.559 44.0806L312.773 44.424L306.184 44.7675L309.184 50.4591L315.871 50.1647L319.018 56.0034L326 55.7581L322.755 49.8703Z" fill="#172B4D"/>
<path d="M312.232 56.1992L315.33 62.087L322.263 61.9398L319.018 56.0029L312.232 56.1992Z" fill="#36B37E"/>
<path d="M306.774 33.2856L309.724 38.8299L316.412 38.3883L313.314 32.7949L306.774 33.2856Z" fill="#36B37E"/>
<path d="M340.85 42.9516L348.325 42.51L344.735 36.5731L341.244 30.7344L334.016 31.2741L326.935 31.8138L330.229 37.5054L337.408 37.0638L340.85 42.9516Z" fill="#36B37E"/>
<path d="M359.978 35.5918L352.258 36.0824L355.946 42.1175L363.814 41.7249L359.978 35.5918Z" fill="#36B37E"/>
<path d="M375.91 47.5635L371.878 41.2832L363.814 41.7248L367.748 47.907L375.91 47.5635Z" fill="#36B37E"/>
<path d="M322.263 61.9392L325.558 68.0233L332.737 67.9251L329.344 61.792L322.263 61.9392Z" fill="#36B37E"/>
</g>
<path d="M359.635 65.0303L332.098 70.9181L331.41 72.7335L337.556 81.1236L359.635 65.0303Z" fill="#172B4D"/>
<path d="M383.139 72.5377L377.582 67.8274L368.977 61.3018L347.194 70.0354L346.21 75.2853L351.521 82.7923L383.139 72.5377Z" fill="white" stroke="#36B37E" stroke-width="0.598795" stroke-miterlimit="10"/>
<path d="M371.977 76.1189L388.056 70.918L378.812 94.0767L365.535 94.9108L371.977 76.1189Z" fill="white" stroke="#36B37E" stroke-width="0.598795" stroke-miterlimit="10"/>
<path d="M354.717 81.6635L351.521 82.792L350.046 103.743L351.521 108.159L365.535 94.9111L371.977 76.1191L354.717 81.6635Z" fill="white" stroke="#36B37E" stroke-width="0.598795" stroke-miterlimit="10"/>
<path d="M397.743 67.8271L425.525 82.792L354.717 81.6635L397.743 67.8271Z" fill="#C5E9DA" stroke="#36B37E" stroke-width="0.598795" stroke-miterlimit="10"/>
<path d="M351.521 82.7922V79.3576L329.246 48.79L326.296 53.4512L347.587 105.706L350.046 103.743L351.521 82.7922Z" fill="white" stroke="#36B37E" stroke-width="0.598795" stroke-miterlimit="10"/>
<path d="M329.246 48.7898L326.296 53.4509L316.363 62.6752L324.23 46.8271L329.246 48.7898Z" fill="white" stroke="#36B37E" stroke-width="0.598795" stroke-miterlimit="10"/>
<path d="M382.352 85.1477L354.717 81.6641L383.581 82.1547L382.352 85.1477Z" fill="#172B4D"/>
<path d="M357.717 80.731L348.079 72.7334L347.686 74.1072L351.521 79.3572V82.7918L357.717 80.731Z" fill="#172B4D"/>
<path d="M345.522 100.701L343.26 103.498L340.31 100.701L324.919 54.7759L326.296 53.4512L345.522 100.701Z" fill="#C5E9DA" stroke="#36B37E" stroke-width="0.598795" stroke-miterlimit="10"/>
<g clip-path="url(#clip0_48_989)">
<path d="M-35.1541 370.247L65.8176 368.945L26.6903 358.205L31.1005 348.898L56.1255 345.472L49.7154 343.989L32.485 343.222L-35.1541 370.247Z" fill="#172B4D"/>
<path d="M20.6903 322.716L17.6134 322.767L-7.9757 313.255L20.9467 329.619L25.6645 325.733L20.6903 322.716Z" fill="#36B37E"/>
<path d="M20.6906 322.715L70.4843 313.612L45.6131 337.699L20.6906 322.715Z" fill="#172B4D"/>
<path d="M-7.9757 313.255L41.7154 341.432L30.5362 343.478L3.15225 345.472L-7.9757 313.255Z" fill="white" stroke="#36B37E" stroke-width="0.633632" stroke-miterlimit="10" stroke-linejoin="round"/>
<path d="M41.7156 341.432L70.4841 313.612L49.7154 343.989L41.7156 341.432Z" fill="white" stroke="#36B37E" stroke-width="0.633632" stroke-miterlimit="10" stroke-linejoin="round"/>
<path d="M20.947 329.619L33.8185 319.033L35.1518 320.107L31.1006 335.398L20.947 329.619Z" fill="white" stroke="#36B37E" stroke-width="0.633632" stroke-miterlimit="10" stroke-linejoin="round"/>
<path d="M35.1516 320.107L46.7924 336.574L41.7156 341.432L31.1004 335.398L35.1516 320.107Z" fill="white" stroke="#36B37E" stroke-width="0.633632" stroke-miterlimit="10" stroke-linejoin="round"/>
<path d="M49.7155 343.989L30.5365 343.477L41.7157 341.432L49.7155 343.989Z" fill="white" stroke="#36B37E" stroke-width="0.633632" stroke-miterlimit="10" stroke-linejoin="round"/>
<path d="M-16.5395 336.113L47.8693 313.612L19.8187 350.688L-16.5395 336.113Z" fill="#C5E9DA" stroke="#36B37E" stroke-width="0.633632" stroke-miterlimit="10"/>
<path d="M-56.7437 329.567L15.511 356.415L0.998517 361.529L-35.1032 369.865L-56.7437 329.567Z" fill="white" stroke="#36B37E" stroke-width="0.633632" stroke-miterlimit="10" stroke-linejoin="round"/>
<path d="M15.5109 356.416L47.8691 313.612L26.6902 358.205L15.5109 356.416Z" fill="white" stroke="#36B37E" stroke-width="0.633632" stroke-miterlimit="10" stroke-linejoin="round"/>
<path d="M-14.6935 345.217L0.229215 328.494L2.22917 329.568L0.0753745 350.688L-14.6935 345.217Z" fill="#36B37E"/>
<path d="M2.22916 329.567L21.1518 348.949L15.5109 356.415L0.0753708 350.688L2.22916 329.567Z" fill="white" stroke="#36B37E" stroke-width="0.633632" stroke-miterlimit="10" stroke-linejoin="round"/>
<path d="M26.6901 358.205L0.998451 361.529L15.5109 356.415L26.6901 358.205Z" fill="white" stroke="#36B37E" stroke-width="0.633632" stroke-miterlimit="10" stroke-linejoin="round"/>
<mask id="mask1_48_989" style="mask-type:alpha" maskUnits="userSpaceOnUse" x="-58" y="329" width="74" height="41">
<path d="M-56.8332 329.759L15.3753 356.309L1.07581 361.223L-35.0259 369.558L-56.8332 329.759Z" fill="white" stroke="#36B37E" stroke-width="0.633632" stroke-miterlimit="10" stroke-linejoin="round"/>
</mask>
<g mask="url(#mask1_48_989)">
<path d="M-13.3601 357.489L-21.2061 357.745L-24.847 351.455L-32.3853 351.762L-28.8469 358.001L-36.2826 358.205L-32.8468 364.496L-25.2572 364.342L-17.5138 364.138L-13.7191 370.734L-5.61669 370.632L-1.61678 377.383H6.79328L2.69081 370.53L-1.36038 363.831L-9.56531 363.984L-13.3601 357.489Z" fill="#C5E9DA"/>
<path d="M2.89609 356.927L-5.36013 357.234L-1.36022 363.831L6.99856 363.626L15.6137 363.421L11.3574 356.671L7.20368 350.074L-1.10382 350.432L2.89609 356.927Z" fill="#36B37E"/>
<path d="M-0.847487 337.238L-8.89857 337.75L-5.05251 343.989L3.15242 343.58L-0.847487 337.238Z" fill="#36B37E"/>
<path d="M15.7675 349.665L11.5112 343.119L3.15243 343.579L7.20361 350.074L15.7675 349.665Z" fill="#36B37E"/>
</g>
</g>
<defs>
<clipPath id="clip0_48_989">
<rect width="127.741" height="64.3839" fill="white" transform="translate(-57 313)"/>
</clipPath>
</defs>
</svg>
